<?xml version="1.0" encoding="UTF-8" standalone="no"?>
<!-- Created with Inkscape (http://www.inkscape.org/) -->

<svg
   width="600"
   height="50"
   viewBox="0 0 158.74999 13.229166"
   version="1.1"
   id="svg1"
   xml:space="preserve"
   inkscape:version="1.3 (0e150ed6c4, 2023-07-21)"
   sodipodi:docname="Recipes.svg"
   xmlns:inkscape="http://www.inkscape.org/namespaces/inkscape"
   xmlns:sodipodi="http://sodipodi.sourceforge.net/DTD/sodipodi-0.dtd"
   xmlns="http://www.w3.org/2000/svg"
   xmlns:svg="http://www.w3.org/2000/svg"><sodipodi:namedview
     id="namedview1"
     pagecolor="#505050"
     bordercolor="#eeeeee"
     borderopacity="1"
     inkscape:showpageshadow="0"
     inkscape:pageopacity="0"
     inkscape:pagecheckerboard="0"
     inkscape:deskcolor="#505050"
     inkscape:document-units="mm"
     inkscape:zoom="2.1694727"
     inkscape:cx="298.22915"
     inkscape:cy="65.223222"
     inkscape:window-width="1920"
     inkscape:window-height="1057"
     inkscape:window-x="-8"
     inkscape:window-y="-8"
     inkscape:window-maximized="1"
     inkscape:current-layer="layer1" /><defs
     id="defs1"><rect
       x="0"
       y="0.65186973"
       width="599.72016"
       height="43.023403"
       id="rect8" /><rect
       x="0.65186973"
       y="1.9556092"
       width="597.76455"
       height="41.719663"
       id="rect7" /><rect
       x="323.32739"
       y="14.993004"
       width="275.7409"
       height="48.89023"
       id="rect6" /><rect
       x="435.58973"
       y="17.054836"
       width="62.227104"
       height="20.281426"
       id="rect5" /><rect
       x="0.46094151"
       y="0.46094151"
       width="310.67458"
       height="48.398859"
       id="rect4" /><rect
       x="0"
       y="0"
       width="599.22396"
       height="50.703566"
       id="rect3" /><rect
       x="0.92188302"
       y="0.92188302"
       width="598.30208"
       height="48.8598"
       id="rect1" /></defs><g
     inkscape:label="Layer 1"
     inkscape:groupmode="layer"
     id="layer1"><g
       inkscape:groupmode="layer"
       id="layer2"
       inkscape:label="Layer 2"><path
         style="font-variation-settings:'wght' 500;fill:#7a7173;fill-opacity:1;stroke-width:7.22299"
         d="M -0.08623693,13.194251 H 160.13012 l 0.12196,-1.522057 H -1.097617 v 1.570202 z"
         id="path8" /><g
         id="text7"
         style="font-size:21px;font-family:Theban;-inkscape-font-specification:'Theban, @wght=500';font-variation-settings:'wght' 500;text-align:center;text-anchor:middle;white-space:pre;fill:#7a7173;stroke-width:27.2995"
         transform="matrix(0.26458333,0,0,0.26458333,0.04311847,3.3033132)"
         aria-label="📜 Witches Recipest 📜"><path
           style="fill:#be946b"
           d="m 220.30967,20.920483 h 2.21484 q 0,0.769043 -0.28711,1.435547 -0.28711,0.666504 -0.78955,1.168945 -0.50244,0.502442 -1.16895,0.789551 -0.6665,0.28711 -1.43554,0.28711 h -11.792 q -0.75878,0 -1.43554,-0.297364 -0.66651,-0.287109 -1.16895,-0.78955 -0.50244,-0.492188 -0.7998,-1.168946 -0.28711,-0.666504 -0.28711,-1.425293 V 4.6988036 h -4.41943 q 0,-0.769043 0.2871,-1.4355469 0.28711,-0.6665039 0.78956,-1.1689453 0.50244,-0.5024414 1.16894,-0.7895508 0.6665,-0.2871093 1.43555,-0.2871093 h 14.00683 q 0.76905,0 1.43555,0.2871093 0.6665,0.2871094 1.16895,0.7895508 0.50244,0.5024414 0.78955,1.1689453 0.28711,0.6665039 0.28711,1.4355469 z m -13.25831,2.20459 q 0.46143,0 0.86133,-0.174316 0.39991,-0.174317 0.69727,-0.47168 0.29736,-0.297363 0.47168,-0.697266 0.17431,-0.399902 0.17431,-0.861328 h 9.58741 V 4.6988036 q 0,-0.4511719 -0.18457,-0.8510742 -0.17432,-0.3999024 -0.48194,-0.6972656 -0.29736,-0.3076172 -0.70752,-0.4819336 -0.3999,-0.1743164 -0.84082,-0.1743164 h -13.91455 q 0.44092,0.020508 0.83057,0.2050781 0.38965,0.1743164 0.67676,0.4716797 0.28711,0.2973633 0.45117,0.6972656 0.16406,0.3896484 0.16406,0.8305664 V 20.920483 q 0,0.461426 0.17432,0.861328 0.17431,0.399903 0.47168,0.697266 0.30761,0.297363 0.70752,0.47168 0.3999,0.174316 0.86132,0.174316 z M 217.36679,9.1284911 V 9.8667724 H 206.31308 V 9.1284911 Z m 0,6.6342769 v 0.728028 h -11.05371 v -0.728028 z m -0.73828,-2.214843 v 0.738281 h -10.31543 v -0.738281 z m -0.73828,-2.214844 v 0.738281 h -9.57715 v -0.738281 z m -3.68115,-5.8959961 v 0.7382812 h -5.896 V 5.4370849 Z m -1.47656,12.5302731 v 0.738282 h -4.41944 v -0.738282 z"
           id="path12" /><path
           style="font-family:Oswald;-inkscape-font-specification:'Oswald, @wght=500'"
           d="m 233.31851,20.182202 -2.415,-17.01 h 2.604 l 1.407,11.025 1.764,-10.983 h 2.121 l 1.806,10.983 1.386,-11.025 h 2.562 l -2.373,17.01 h -2.52 l -1.89,-11.403 -1.869,11.403 z m 13.062,0 v -12.138 h 2.856 v 12.138 z m 0,-14.07 v -2.373 h 2.856 v 2.373 z m 8.65198,14.217 q -1.155,0 -1.827,-0.378 -0.651,-0.378 -0.924,-1.092 -0.273,-0.714 -0.273,-1.701 v -7.224 h -1.218 v -1.89 h 1.218 v -3.633 h 2.877 v 3.633 h 1.848 v 1.89 h -1.848 v 6.972 q 0,0.63 0.273,0.903 0.273,0.252 0.819,0.252 0.231,0 0.441,-0.021 0.231,-0.021 0.441,-0.042 v 2.184 q -0.357,0.042 -0.84,0.084 -0.462,0.063 -0.987,0.063 z m 7.056,0.042 q -1.407,0 -2.268,-0.525 -0.84,-0.546 -1.239,-1.533 -0.378,-1.008 -0.378,-2.373 v -3.654 q 0,-1.407 0.378,-2.394 0.399,-0.987 1.26,-1.512 0.861,-0.525 2.247,-0.525 1.302,0 2.121,0.42 0.84,0.399 1.218,1.239 0.378,0.819 0.378,2.079 v 1.008 h -2.688 v -1.071 q 0,-0.63 -0.105,-0.987 -0.084,-0.378 -0.315,-0.525 -0.231,-0.168 -0.609,-0.168 -0.378,0 -0.609,0.21 -0.231,0.189 -0.336,0.63 -0.084,0.441 -0.084,1.218 v 4.452 q 0,1.176 0.252,1.596 0.252,0.399 0.798,0.399 0.42,0 0.63,-0.189 0.231,-0.189 0.294,-0.546 0.084,-0.378 0.084,-0.903 v -1.302 h 2.688 v 1.155 q 0,1.218 -0.399,2.079 -0.378,0.861 -1.218,1.302 -0.819,0.42 -2.1,0.42 z m 5.62801,-0.189 v -17.01 h 2.856 v 6.027 q 0.63,-0.63 1.365,-0.987 0.756,-0.357 1.638,-0.357 0.735,0 1.176,0.378 0.441,0.357 0.651,0.966 0.21,0.609 0.21,1.323 v 9.66 h -2.856 v -9.093 q 0,-0.546 -0.168,-0.84 -0.168,-0.294 -0.651,-0.294 -0.294,0 -0.672,0.168 -0.357,0.168 -0.693,0.441 v 9.618 z m 13.67102,0.189 q -1.365,0 -2.226,-0.504 -0.861,-0.525 -1.281,-1.512 -0.399,-1.008 -0.399,-2.415 v -3.654 q 0,-1.449 0.399,-2.436 0.42,-0.987 1.281,-1.491 0.882,-0.504 2.226,-0.504 1.449,0 2.247,0.546 0.819,0.546 1.155,1.596 0.357,1.029 0.357,2.52 v 1.722 h -4.83 v 2.394 q 0,0.588 0.105,0.966 0.126,0.378 0.378,0.546 0.252,0.168 0.609,0.168 0.378,0 0.609,-0.168 0.231,-0.189 0.336,-0.525 0.105,-0.357 0.105,-0.882 v -1.008 h 2.667 v 0.819 q 0,1.848 -0.924,2.835 -0.924,0.987 -2.814,0.987 z m -1.071,-7.539 h 2.142 v -1.155 q 0,-0.63 -0.105,-1.008 -0.105,-0.399 -0.336,-0.567 -0.231,-0.189 -0.651,-0.189 -0.378,0 -0.609,0.189 -0.231,0.189 -0.336,0.63 -0.105,0.441 -0.105,1.26 z m 10.05898,7.539 q -1.533,0 -2.52,-0.819 -0.987,-0.819 -1.407,-2.394 l 2.121,-0.819 q 0.252,0.987 0.672,1.512 0.42,0.525 1.092,0.525 0.504,0 0.756,-0.252 0.252,-0.252 0.252,-0.693 0,-0.504 -0.315,-0.903 -0.294,-0.42 -1.029,-1.029 l -1.47,-1.239 q -0.798,-0.693 -1.302,-1.407 -0.483,-0.735 -0.483,-1.827 0,-0.987 0.441,-1.68 0.462,-0.714 1.239,-1.092 0.798,-0.399 1.764,-0.399 1.512,0 2.415,0.882 0.903,0.861 1.176,2.268 l -1.932,0.798 q -0.105,-0.504 -0.315,-0.924 -0.189,-0.441 -0.504,-0.714 -0.315,-0.273 -0.756,-0.273 -0.441,0 -0.714,0.273 -0.252,0.273 -0.252,0.693 0,0.357 0.294,0.735 0.315,0.378 0.882,0.861 l 1.491,1.344 q 0.483,0.42 0.924,0.903 0.441,0.483 0.735,1.092 0.294,0.588 0.294,1.365 0,1.05 -0.483,1.764 -0.462,0.714 -1.281,1.092 -0.798,0.357 -1.785,0.357 z m 10.39499,-0.189 v -17.01 h 4.074 q 1.722,0 2.898,0.42 1.197,0.399 1.806,1.386 0.63,0.987 0.63,2.688 0,1.029 -0.189,1.848 -0.189,0.819 -0.651,1.407 -0.441,0.567 -1.239,0.882 l 2.373,8.379 h -3.108 l -2.058,-7.791 h -1.428 v 7.791 z m 3.108,-9.744 h 0.966 q 0.903,0 1.428,-0.252 0.546,-0.273 0.777,-0.84 0.231,-0.588 0.231,-1.491 0,-1.281 -0.483,-1.911 -0.462,-0.651 -1.785,-0.651 h -1.134 z m 11.85076,9.933 q -1.365,0 -2.226,-0.504 -0.861,-0.525 -1.281,-1.512 -0.399,-1.008 -0.399,-2.415 v -3.654 q 0,-1.449 0.399,-2.436 0.42,-0.987 1.281,-1.491 0.882,-0.504 2.226,-0.504 1.449,0 2.247,0.546 0.819,0.546 1.155,1.596 0.357,1.029 0.357,2.52 v 1.722 h -4.83 v 2.394 q 0,0.588 0.105,0.966 0.126,0.378 0.378,0.546 0.252,0.168 0.609,0.168 0.378,0 0.609,-0.168 0.231,-0.189 0.336,-0.525 0.105,-0.357 0.105,-0.882 v -1.008 h 2.667 v 0.819 q 0,1.848 -0.924,2.835 -0.924,0.987 -2.814,0.987 z m -1.071,-7.539 h 2.142 v -1.155 q 0,-0.63 -0.105,-1.008 -0.105,-0.399 -0.336,-0.567 -0.231,-0.189 -0.651,-0.189 -0.378,0 -0.609,0.189 -0.231,0.189 -0.336,0.63 -0.105,0.441 -0.105,1.26 z m 10.41598,7.539 q -1.407,0 -2.268,-0.525 -0.84,-0.546 -1.239,-1.533 -0.378,-1.008 -0.378,-2.373 v -3.654 q 0,-1.407 0.378,-2.394 0.399,-0.987 1.26,-1.512 0.861,-0.525 2.247,-0.525 1.302,0 2.121,0.42 0.84,0.399 1.218,1.239 0.378,0.819 0.378,2.079 v 1.008 h -2.688 v -1.071 q 0,-0.63 -0.105,-0.987 -0.084,-0.378 -0.315,-0.525 -0.231,-0.168 -0.609,-0.168 -0.378,0 -0.609,0.21 -0.231,0.189 -0.336,0.63 -0.084,0.441 -0.084,1.218 v 4.452 q 0,1.176 0.252,1.596 0.252,0.399 0.798,0.399 0.42,0 0.63,-0.189 0.231,-0.189 0.294,-0.546 0.084,-0.378 0.084,-0.903 v -1.302 h 2.688 v 1.155 q 0,1.218 -0.399,2.079 -0.378,0.861 -1.218,1.302 -0.819,0.42 -2.1,0.42 z m 5.67001,-0.189 v -12.138 h 2.856 v 12.138 z m 0,-14.07 v -2.373 h 2.856 v 2.373 z m 5.12398,18.06 v -16.128 h 2.856 v 0.924 q 0.525,-0.504 1.155,-0.798 0.63,-0.315 1.323,-0.315 0.819,0 1.344,0.378 0.525,0.378 0.819,1.008 0.294,0.609 0.399,1.323 0.126,0.693 0.126,1.344 v 4.116 q 0,1.197 -0.294,2.184 -0.273,0.987 -0.903,1.575 -0.609,0.588 -1.638,0.588 -0.651,0 -1.239,-0.315 -0.567,-0.315 -1.092,-0.798 v 4.914 z m 4.116,-5.796 q 0.462,0 0.672,-0.294 0.231,-0.315 0.294,-0.819 0.084,-0.525 0.084,-1.134 v -4.347 q 0,-0.567 -0.084,-1.008 -0.084,-0.462 -0.315,-0.735 -0.231,-0.273 -0.672,-0.273 -0.336,0 -0.672,0.168 -0.315,0.147 -0.567,0.357 v 7.665 q 0.273,0.189 0.588,0.315 0.315,0.105 0.672,0.105 z m 9.555,1.995 q -1.365,0 -2.226,-0.504 -0.861,-0.525 -1.281,-1.512 -0.399,-1.008 -0.399,-2.415 v -3.654 q 0,-1.449 0.399,-2.436 0.42,-0.987 1.281,-1.491 0.882,-0.504 2.226,-0.504 1.449,0 2.247,0.546 0.819,0.546 1.155,1.596 0.357,1.029 0.357,2.52 v 1.722 h -4.83 v 2.394 q 0,0.588 0.105,0.966 0.126,0.378 0.378,0.546 0.252,0.168 0.609,0.168 0.378,0 0.609,-0.168 0.231,-0.189 0.336,-0.525 0.105,-0.357 0.105,-0.882 v -1.008 h 2.667 v 0.819 q 0,1.848 -0.924,2.835 -0.924,0.987 -2.814,0.987 z m -1.071,-7.539 h 2.142 v -1.155 q 0,-0.63 -0.105,-1.008 -0.105,-0.399 -0.336,-0.567 -0.231,-0.189 -0.651,-0.189 -0.378,0 -0.609,0.189 -0.231,0.189 -0.336,0.63 -0.105,0.441 -0.105,1.26 z m 10.05898,7.539 q -1.533,0 -2.52,-0.819 -0.987,-0.819 -1.407,-2.394 l 2.121,-0.819 q 0.252,0.987 0.672,1.512 0.42,0.525 1.092,0.525 0.504,0 0.756,-0.252 0.252,-0.252 0.252,-0.693 0,-0.504 -0.315,-0.903 -0.294,-0.42 -1.029,-1.029 l -1.47,-1.239 q -0.798,-0.693 -1.302,-1.407 -0.483,-0.735 -0.483,-1.827 0,-0.987 0.441,-1.68 0.462,-0.714 1.239,-1.092 0.798,-0.399 1.764,-0.399 1.512,0 2.415,0.882 0.903,0.861 1.176,2.268 l -1.932,0.798 q -0.105,-0.504 -0.315,-0.924 -0.189,-0.441 -0.504,-0.714 -0.315,-0.273 -0.756,-0.273 -0.441,0 -0.714,0.273 -0.252,0.273 -0.252,0.693 0,0.357 0.294,0.735 0.315,0.378 0.882,0.861 l 1.491,1.344 q 0.483,0.42 0.924,0.903 0.441,0.483 0.735,1.092 0.294,0.588 0.294,1.365 0,1.05 -0.483,1.764 -0.462,0.714 -1.281,1.092 -0.798,0.357 -1.785,0.357 z m 8.631,-0.042 q -1.155,0 -1.827,-0.378 -0.651,-0.378 -0.924,-1.092 -0.273,-0.714 -0.273,-1.701 v -7.224 h -1.218 v -1.89 h 1.218 v -3.633 h 2.877 v 3.633 h 1.848 v 1.89 h -1.848 v 6.972 q 0,0.63 0.273,0.903 0.273,0.252 0.819,0.252 0.231,0 0.441,-0.021 0.231,-0.021 0.441,-0.042 v 2.184 q -0.357,0.042 -0.84,0.084 -0.462,0.063 -0.987,0.063 z"
           id="path13" /><path
           style="fill:#be946b"
           d="m 398.56534,20.920483 h 2.21485 q 0,0.769043 -0.28711,1.435547 -0.28711,0.666504 -0.78955,1.168945 -0.50245,0.502442 -1.16895,0.789551 -0.6665,0.28711 -1.43555,0.28711 h -11.79199 q -0.75879,0 -1.43555,-0.297364 -0.6665,-0.287109 -1.16894,-0.78955 -0.50244,-0.492188 -0.79981,-1.168946 -0.28711,-0.666504 -0.28711,-1.425293 V 4.6988036 h -4.41943 q 0,-0.769043 0.28711,-1.4355469 0.28711,-0.6665039 0.78955,-1.1689453 0.50244,-0.5024414 1.16895,-0.7895508 0.6665,-0.2871093 1.43554,-0.2871093 h 14.00684 q 0.76904,0 1.43555,0.2871093 0.6665,0.2871094 1.16894,0.7895508 0.50244,0.5024414 0.78955,1.1689453 0.28711,0.6665039 0.28711,1.4355469 z m -13.2583,2.20459 q 0.46143,0 0.86133,-0.174316 0.3999,-0.174317 0.69726,-0.47168 0.29737,-0.297363 0.47168,-0.697266 0.17432,-0.399902 0.17432,-0.861328 h 9.5874 V 4.6988036 q 0,-0.4511719 -0.18457,-0.8510742 -0.17431,-0.3999024 -0.48193,-0.6972656 -0.29736,-0.3076172 -0.70752,-0.4819336 -0.3999,-0.1743164 -0.84082,-0.1743164 h -13.91455 q 0.44092,0.020508 0.83057,0.2050781 0.38964,0.1743164 0.67675,0.4716797 0.28711,0.2973633 0.45117,0.6972656 0.16407,0.3896484 0.16407,0.8305664 V 20.920483 q 0,0.461426 0.17431,0.861328 0.17432,0.399903 0.47168,0.697266 0.30762,0.297363 0.70752,0.47168 0.39991,0.174316 0.86133,0.174316 z M 395.62247,9.1284911 V 9.8667724 H 384.56876 V 9.1284911 Z m 0,6.6342769 v 0.728028 h -11.05371 v -0.728028 z m -0.73828,-2.214843 v 0.738281 h -10.31543 v -0.738281 z m -0.73828,-2.214844 v 0.738281 h -9.57715 v -0.738281 z m -3.68115,-5.8959961 v 0.7382812 h -5.896 V 5.4370849 Z m -1.47657,12.5302731 v 0.738282 h -4.41943 v -0.738282 z"
           id="path14" /></g></g><path
       style="font-variation-settings:'wght' 500;fill:#f7d7c4;fill-opacity:1;stroke-width:1.11223"
       d="m 206.7853,35.548998 c -0.83213,-0.179527 -1.48335,-0.799985 -1.69074,-1.610872 -0.0802,-0.313714 -0.0815,-0.450742 -0.0815,-8.662315 0,-5.895727 -0.0131,-8.406899 -0.0447,-8.559458 -0.14998,-0.724503 -0.71284,-1.363598 -1.42863,-1.622106 -0.21608,-0.07804 -0.17281,-0.07848 6.76976,-0.06952 l 6.98723,0.009 0.22043,0.09023 c 0.70985,0.290599 1.30222,0.985512 1.42987,1.677411 0.026,0.14071 0.0405,3.155881 0.0405,8.403008 v 8.183553 h -4.78467 -4.78467 l -0.024,0.193524 c -0.10961,0.883184 -0.67089,1.604825 -1.46965,1.889513 -0.26993,0.09621 -0.86571,0.137006 -1.13918,0.07801 z m 4.1353,-4.72813 v -0.407766 l -2.23062,0.01053 -2.23061,0.01053 -0.0119,0.3429 c -0.007,0.188596 -0.003,0.367351 0.009,0.397234 0.017,0.04436 0.42851,0.05433 2.24256,0.05433 h 2.22171 z m 6.64092,-2.220229 v -0.387193 l -5.55107,0.01033 -5.55108,0.01033 -0.0117,0.376862 -0.0117,0.376862 h 5.56279 5.56279 z m -0.73335,-2.199915 v -0.387047 h -5.19459 -5.19458 v 0.387047 0.387048 h 5.19458 5.19459 z m -0.77409,-2.20006 v -0.387048 h -4.80754 -4.80754 v 0.359887 c 0,0.197937 0.0122,0.372109 0.0272,0.387047 0.0149,0.01494 2.17833,0.02716 4.80754,0.02716 h 4.78038 z m 1.50744,-2.20006 v -0.387048 h -5.56126 -5.56126 v 0.359886 c 0,0.197938 0.0122,0.372109 0.0272,0.387048 0.0149,0.01494 2.51751,0.02716 5.56126,0.02716 h 5.5341 z m -5.17421,-3.70751 v -0.387047 h -2.97416 -2.97415 v 0.387047 0.387048 h 2.97415 2.97416 z"
       id="path10"
       transform="scale(0.26458333)" /><path
       style="font-variation-settings:'wght' 500;fill:#f7d7c4;fill-opacity:1;stroke-width:1.57294"
       d="m 384.96583,35.527923 c -0.68678,-0.178007 -1.29157,-0.720045 -1.56566,-1.403214 -0.0909,-0.226635 -0.10071,-0.909876 -0.1273,-8.888161 l -0.0288,-8.642654 -0.1592,-0.324041 c -0.24162,-0.4918 -0.56492,-0.822272 -1.034,-1.056948 l -0.41041,-0.205315 6.9669,0.01531 6.96689,0.01531 0.37965,0.185777 c 0.45724,0.223743 0.86288,0.636459 1.07923,1.098056 l 0.15442,0.329462 0.015,8.368969 0.015,8.36897 h -4.77542 -4.77541 l -0.0401,0.302388 c -0.0926,0.697995 -0.61559,1.392718 -1.27611,1.695116 -0.34351,0.157262 -1.04585,0.228768 -1.3846,0.140968 z m 4.18404,-4.702459 v -0.374515 h -2.21828 -2.21828 v 0.374515 0.374515 h 2.21828 2.21828 z m 6.68365,-2.218281 v -0.403324 h -5.5601 -5.56011 v 0.403324 0.403323 h 5.56011 5.5601 z m -0.74903,-2.189473 v -0.403323 h -5.18559 -5.18559 v 0.403323 0.403324 h 5.18559 5.18559 z m -0.74903,-2.24709 v -0.403323 h -4.81107 -4.81108 v 0.403323 0.403324 h 4.81108 4.81107 z m 1.49806,-2.189472 v -0.403324 h -5.5601 -5.56011 v 0.403324 0.403324 h 5.56011 5.5601 z m -5.18559,-3.687532 v -0.403324 h -2.96731 -2.96731 v 0.403324 0.403324 h 2.96731 2.96731 z"
       id="path11"
       transform="scale(0.26458333)" /></g></svg>
