<?xml version="1.0" encoding="UTF-8" standalone="no"?>
<!-- Created with Inkscape (http://www.inkscape.org/) -->

<svg
   width="600"
   height="50"
   viewBox="0 0 158.74999 13.229166"
   version="1.1"
   id="svg1"
   xml:space="preserve"
   inkscape:version="1.3 (0e150ed6c4, 2023-07-21)"
   sodipodi:docname="ScrollAndBrooms.svg"
   xmlns:inkscape="http://www.inkscape.org/namespaces/inkscape"
   xmlns:sodipodi="http://sodipodi.sourceforge.net/DTD/sodipodi-0.dtd"
   xmlns="http://www.w3.org/2000/svg"
   xmlns:svg="http://www.w3.org/2000/svg"><sodipodi:namedview
     id="namedview1"
     pagecolor="#505050"
     bordercolor="#eeeeee"
     borderopacity="1"
     inkscape:showpageshadow="0"
     inkscape:pageopacity="0"
     inkscape:pagecheckerboard="0"
     inkscape:deskcolor="#505050"
     inkscape:document-units="mm"
     inkscape:zoom="1.5340488"
     inkscape:cx="226.85067"
     inkscape:cy="111.79566"
     inkscape:window-width="1920"
     inkscape:window-height="1057"
     inkscape:window-x="-8"
     inkscape:window-y="-8"
     inkscape:window-maximized="1"
     inkscape:current-layer="layer1" /><defs
     id="defs1"><rect
       x="323.32739"
       y="14.993004"
       width="275.7409"
       height="48.89023"
       id="rect6" /><rect
       x="435.58973"
       y="17.054836"
       width="62.227104"
       height="20.281426"
       id="rect5" /><rect
       x="0.46094151"
       y="0.46094151"
       width="310.67458"
       height="48.398859"
       id="rect4" /><rect
       x="0"
       y="0"
       width="599.22396"
       height="50.703566"
       id="rect3" /><rect
       x="0.92188302"
       y="0.92188302"
       width="598.30208"
       height="48.8598"
       id="rect1" /></defs><g
     inkscape:label="Layer 1"
     inkscape:groupmode="layer"
     id="layer1"><g
       id="text4"
       style="font-size:20px;font-family:Oswald;-inkscape-font-specification:'Oswald, @wght=500';font-variation-settings:'wght' 500;text-align:center;white-space:pre;fill:#7a7173;stroke-width:27.2995"
       transform="matrix(0.26458333,0,0,0.26458333,-3.1995878,3.7806807)"
       aria-label="k Scrolls h"><path
         style="font-family:Theban;-inkscape-font-specification:'Theban, @wght=500'"
         d="m 123.96041,18.670178 q 0,-0.820313 0.0586,-1.367188 0.0586,-0.546875 0.0586,-3.59375 V 9.0608025 q 0.0391,-2.109375 -1.05468,-2.0507812 -1.09375,0.058594 -1.15235,2.109375 l -0.0195,2.0898437 q 0,0.351563 -0.74219,0.371094 -0.74218,0.01953 -0.74218,-0.332031 l 0.0195,-2.0507817 q -0.0195,-2.0898438 -1.07422,-2.0507813 -1.05469,0.039063 -1.05469,2.0703125 v 2.0703125 q 0,0.351563 -0.70312,0.371094 -0.70313,0.01953 -0.70313,-0.332031 V 8.943615 q -0.15625,-1.40625 -0.9375,-1.6796875 -0.78125,-0.2734375 -1.30859,1.171875 -0.52735,1.4453125 -0.52735,4.5312505 0.0391,2.03125 1.05469,3.574218 1.01563,1.542969 2.42188,1.660157 0.9375,-0.03906 1.67968,-0.449219 0.74219,-0.410156 1.25,-1.464844 0.19532,-0.507812 0.39063,-0.507812 0.19531,0 0.15625,0.546875 -0.15625,0.9375 -1.11328,1.835937 -0.95703,0.898438 -2.67578,0.9375 -1.91407,-0.03906 -3.32032,-1.933594 -1.40625,-1.894531 -1.48437,-5.136718 0.0781,-2.617188 0.9375,-4.1210942 0.85937,-1.5039063 2.14844,-1.8164063 1.28906,-0.3125 2.03125,0.8984375 0.35156,-1.09375 1.69922,-1.171875 1.34765,-0.078125 1.85546,1.015625 0.39063,-0.703125 1.6211,-0.9960937 1.23047,-0.2929688 2.1289,0.4101562 0.89844,0.703125 0.9375,2.109375 v 5.0000005 q 0,3.398437 0.0781,3.945312 0.0781,0.546875 0.0781,1.367188 0,0.390625 -0.99609,0.390625 -0.99609,0 -0.99609,-0.390625 z"
         id="path4" /><path
         d="m 137.04033,19.280803 q -1.46,0 -2.44,-0.56 -0.98,-0.58 -1.48,-1.68 -0.5,-1.1 -0.56,-2.7 l 2.54,-0.5 q 0.04,0.94 0.22,1.66 0.2,0.72 0.58,1.12 0.4,0.38 1.04,0.38 0.72,0 1.02,-0.42 0.3,-0.44 0.3,-1.1 0,-1.06 -0.48,-1.74 -0.48,-0.68 -1.28,-1.36 l -2.04,-1.8 q -0.86,-0.7400005 -1.38,-1.6400005 -0.5,-0.92 -0.5,-2.26 0,-1.92 1.12,-2.96 1.12,-1.04 3.06,-1.04 1.14,0 1.9,0.36 0.76,0.34 1.2,0.96 0.46,0.62 0.68,1.42 0.22,0.78 0.28,1.66 l -2.52,0.44 q -0.04,-0.76 -0.18,-1.36 -0.12,-0.6 -0.46,-0.94 -0.32,-0.34 -0.96,-0.34 -0.66,0 -1.02,0.44 -0.34,0.42 -0.34,1.06 0,0.82 0.34,1.36 0.34,0.52 0.98,1.08 l 2.02,1.7800005 q 1,0.84 1.7,1.98 0.72,1.12 0.72,2.72 0,1.16 -0.52,2.06 -0.5,0.9 -1.42,1.42 -0.9,0.5 -2.12,0.5 z m 9.09999,-0.04 q -1.34,0 -2.16,-0.5 -0.8,-0.52 -1.18,-1.46 -0.36,-0.96 -0.36,-2.26 v -3.48 q 0,-1.34 0.36,-2.2800005 0.38,-0.94 1.2,-1.44 0.82,-0.5 2.14,-0.5 1.24,0 2.02,0.4 0.8,0.38 1.16,1.18 0.36,0.78 0.36,1.9800005 v 0.96 h -2.56 v -1.02 q 0,-0.6 -0.1,-0.9400005 -0.08,-0.36 -0.3,-0.5 -0.22,-0.16 -0.58,-0.16 -0.36,0 -0.58,0.2 -0.22,0.18 -0.32,0.6000005 -0.08,0.42 -0.08,1.16 v 4.24 q 0,1.12 0.24,1.52 0.24,0.38 0.76,0.38 0.4,0 0.6,-0.18 0.22,-0.18 0.28,-0.52 0.08,-0.36 0.08,-0.86 v -1.24 h 2.56 v 1.1 q 0,1.16 -0.38,1.98 -0.36,0.82 -1.16,1.24 -0.78,0.4 -2,0.4 z m 5.38001,-0.18 V 7.5008025 h 2.72 v 1.78 q 0.6,-1.02 1.2,-1.46 0.6,-0.46 1.32,-0.46 0.12,0 0.2,0.02 0.1,0 0.22,0.02 v 2.8200005 q -0.24,-0.1 -0.54,-0.16 -0.28,-0.080001 -0.58,-0.080001 -0.54,0 -0.98,0.2600005 -0.44,0.26 -0.84,0.86 v 7.96 z m 10.46065,0.18 q -1.26,0 -2.08,-0.46 -0.82,-0.48 -1.24,-1.38 -0.4,-0.9 -0.4,-2.18 v -3.88 q 0,-1.28 0.4,-2.1800005 0.42,-0.9 1.24,-1.36 0.82,-0.48 2.08,-0.48 1.26,0 2.08,0.48 0.84,0.46 1.24,1.36 0.42,0.9000005 0.42,2.1800005 v 3.88 q 0,1.28 -0.42,2.18 -0.4,0.9 -1.24,1.38 -0.82,0.46 -2.08,0.46 z m 0.02,-1.88 q 0.46,0 0.68,-0.26 0.22,-0.26 0.28,-0.7 0.06,-0.46 0.06,-1 v -4.24 q 0,-0.54 -0.06,-0.98 -0.06,-0.4400005 -0.28,-0.7000005 -0.22,-0.28 -0.68,-0.28 -0.46,0 -0.68,0.28 -0.22,0.26 -0.3,0.7000005 -0.06,0.44 -0.06,0.98 v 4.24 q 0,0.54 0.06,1 0.08,0.44 0.3,0.7 0.22,0.26 0.68,0.26 z m 5.75999,1.7 V 2.8608025 h 2.7 V 19.060803 Z m 5.04002,0 V 2.8608025 h 2.7 V 19.060803 Z m 8.00002,0.18 q -1.46,0 -2.4,-0.78 -0.94,-0.78 -1.34,-2.28 l 2.02,-0.78 q 0.24,0.94 0.64,1.44 0.4,0.5 1.04,0.5 0.48,0 0.72,-0.24 0.24,-0.24 0.24,-0.66 0,-0.48 -0.3,-0.86 -0.28,-0.4 -0.98,-0.98 l -1.4,-1.18 q -0.76,-0.66 -1.24,-1.34 -0.46,-0.7 -0.46,-1.74 0,-0.9400005 0.42,-1.6000005 0.44,-0.68 1.18,-1.04 0.76,-0.38 1.68,-0.38 1.44,0 2.3,0.84 0.86,0.82 1.12,2.1600005 l -1.84,0.76 q -0.1,-0.48 -0.3,-0.88 -0.18,-0.4200005 -0.48,-0.6800005 -0.3,-0.26 -0.72,-0.26 -0.42,0 -0.68,0.26 -0.24,0.26 -0.24,0.6600005 0,0.34 0.28,0.7 0.3,0.36 0.84,0.82 l 1.42,1.28 q 0.46,0.4 0.88,0.86 0.42,0.46 0.7,1.04 0.28,0.56 0.28,1.3 0,1 -0.46,1.68 -0.44,0.68 -1.22,1.04 -0.76,0.34 -1.7,0.34 z"
         id="path5" /><path
         style="font-family:Theban;-inkscape-font-specification:'Theban, @wght=500'"
         d="m 196.80522,18.826428 q 0,0.234375 -1.05469,0.234375 -1.05469,0 -1.05469,-0.234375 0,-0.546875 0.0781,-0.917969 0.0781,-0.371094 0.0781,-2.050781 l -2.1875,1.679687 -0.42968,-0.664062 2.61718,-1.992188 -0.0195,-7.8515625 -2.77344,3.2031255 q -0.35156,0.351562 -0.58593,0 l -1.875,-3.398438 q -0.0781,-0.2734375 0.11718,-0.5078125 l 0.74219,-0.6640625 q 0.27344,-0.1953125 0.42969,0.1171875 l 1.71875,2.96875 2.1875,-2.5 q 0,-0.703125 1.00586,-0.7617187 0.9375,0.029297 0.86914,0.3710937 l 0.0195,7.6562505 q 1.40625,-1.171875 2.32422,-2.285157 0.91797,-1.113281 0.95703,-1.4648435 -0.70312,0.234375 -0.97656,-0.019531 -0.27344,-0.2539063 -0.15625,-0.7226563 0.11719,-0.703125 0.99609,-0.7617187 0.87891,-0.058594 0.80078,1.1914062 -0.0391,0.6250005 -1.30859,2.2265625 -1.26953,1.601563 -2.63672,2.734375 v 2.539063 q 0,0.703125 0.0586,0.976562 0.0586,0.273438 0.0586,0.898438 z"
         id="path6" /></g><g
       id="text5"
       style="font-size:20px;font-family:Oswald;-inkscape-font-specification:'Oswald, @wght=500';font-variation-settings:'wght' 500;text-align:center;white-space:pre;fill:#7a7173;stroke-width:27.2995"
       transform="matrix(0.26458333,0,0,0.26458333,-1.7449198,0.40592646)"
       aria-label="🧹 Brooms 🧹"><path
         style="fill:#000000"
         d="m 411.9584,24.871349 8.88672,-8.867187 q 0.3125,-0.3125 0.69336,-0.488281 0.39062,-0.175782 0.83007,-0.175782 0.42969,0 0.81055,0.166016 0.39063,0.166016 0.67383,0.449219 0.29297,0.283203 0.45898,0.664062 0.16602,0.38086 0.16602,0.810547 0,0.46875 -0.17578,0.84961 -0.16602,0.371093 -0.48828,0.693359 l -8.88672,8.886719 v 0.146484 q 0,0.117188 -0.01,0.234375 -0.01,0.117188 -0.0293,0.224609 0.43946,0.751954 0.43946,1.640625 0,0.673829 -0.27344,1.25 -0.27344,0.576172 -0.74219,1.044922 l -4.98047,4.990235 q -0.19531,0.195312 -0.45898,0.302734 -0.25391,0.107422 -0.53711,0.107422 -0.2832,0 -0.54687,-0.107422 -0.25391,-0.107422 -0.44922,-0.302734 l -4.91211,-4.91211 q -0.19532,-0.195312 -0.30274,-0.449218 -0.10742,-0.263672 -0.10742,-0.546875 0,-0.273438 0.10742,-0.53711 0.10742,-0.263672 0.30274,-0.458984 l 4.9707,-4.970703 q 0.46875,-0.46875 1.07422,-0.742188 0.61523,-0.283203 1.28906,-0.283203 0.83008,0 1.5625,0.419922 0.16602,-0.01953 0.3125,-0.0293 0.15625,-0.0098 0.32227,-0.0098 z m -2.2168,1.025391 q -0.25391,0 -0.45898,0.05859 -0.20508,0.04883 -0.38086,0.15625 -0.16602,0.09766 -0.33203,0.234375 -0.15625,0.136719 -0.32227,0.3125 l 4.20898,4.208984 q 0.35157,-0.332031 0.55664,-0.654297 0.20508,-0.332031 0.20508,-0.830078 0,-0.351562 -0.13672,-0.673828 -0.12695,-0.332031 -0.37109,-0.576172 l -1.72852,-1.728515 q -0.24414,-0.244141 -0.57617,-0.371094 -0.32226,-0.136719 -0.66406,-0.136719 z m -1.99219,1.259766 -0.57617,0.566406 4.21875,4.21875 0.57617,-0.576172 z m -4.32617,4.326172 0.57617,0.576171 3.26172,-3.261718 -0.57617,-0.576172 z m 0.82031,0.830078 0.45899,0.449218 3.26172,-3.261718 -0.45899,-0.449219 z m 0.70313,0.703125 0.45898,0.449218 3.26172,-3.261718 q -0.10742,-0.107422 -0.22461,-0.22461 -0.10742,-0.117187 -0.23437,-0.224609 z m 0.70312,0.703125 0.44922,0.449218 3.26172,-3.261718 -0.44922,-0.449219 z m 0.70313,0.693359 0.44922,0.458984 3.26172,-3.261718 q -0.10743,-0.126953 -0.22461,-0.22461 -0.11719,-0.107422 -0.22461,-0.234375 z m 0.70312,0.703125 0.57618,0.576172 3.26171,-3.261719 -0.57617,-0.576172 z m 6.31836,-7.685547 9.49219,-9.492187 q 0.20508,-0.205078 0.20508,-0.488282 0,-0.292968 -0.20508,-0.498046 -0.20508,-0.205079 -0.49805,-0.205079 -0.2832,0 -0.48828,0.205079 l -9.49219,9.482421 q 0.0977,0.06836 0.23438,0.205079 0.14648,0.126953 0.2832,0.273437 0.14649,0.146484 0.27344,0.292969 0.12695,0.136719 0.19531,0.224609 z"
         id="path1" /><path
         d="m 433.05793,33.592053 v -16.2 h 3.98 q 1.08,0 1.94,0.2 0.88,0.2 1.5,0.68 0.64,0.46 0.98,1.26 0.34,0.8 0.34,2.02 0,0.98 -0.28,1.68 -0.26,0.7 -0.78,1.12 -0.52,0.4 -1.3,0.54 0.96,0.16 1.58,0.68 0.64,0.5 0.94,1.32 0.32,0.82 0.32,1.98 0,1.16 -0.3,2.06 -0.28,0.88 -0.86,1.48 -0.56,0.58 -1.42,0.88 -0.84,0.3 -1.98,0.3 z m 2.96,-2.08 h 1.12 q 1.34,0 1.82,-0.64 0.48,-0.66 0.48,-2.02 0,-0.98 -0.24,-1.58 -0.22,-0.62 -0.76,-0.92 -0.52,-0.3 -1.4,-0.3 h -1.02 z m 0,-7.5 h 1 q 0.88,0 1.36,-0.26 0.48,-0.26 0.66,-0.8 0.2,-0.54 0.2,-1.36 0,-0.86 -0.3,-1.32 -0.28,-0.48 -0.86,-0.64 -0.58,-0.18 -1.48,-0.18 h -0.58 z m 8.05998,9.58 v -11.56 h 2.72 v 1.78 q 0.6,-1.02 1.2,-1.46 0.6,-0.46 1.32,-0.46 0.12,0 0.2,0.02 0.1,0 0.22,0.02 v 2.82 q -0.24,-0.1 -0.54,-0.16 -0.28,-0.08 -0.58,-0.08 -0.54,0 -0.98,0.26 -0.44,0.26 -0.84,0.86 v 7.96 z m 10.46065,0.18 q -1.26,0 -2.08,-0.46 -0.82,-0.48 -1.24,-1.38 -0.4,-0.9 -0.4,-2.18 v -3.88 q 0,-1.28 0.4,-2.18 0.42,-0.9 1.24,-1.36 0.82,-0.48 2.08,-0.48 1.26,0 2.08,0.48 0.84,0.46 1.24,1.36 0.42,0.9 0.42,2.18 v 3.88 q 0,1.28 -0.42,2.18 -0.4,0.9 -1.24,1.38 -0.82,0.46 -2.08,0.46 z m 0.02,-1.88 q 0.46,0 0.68,-0.26 0.22,-0.26 0.28,-0.7 0.06,-0.46 0.06,-1 v -4.24 q 0,-0.54 -0.06,-0.98 -0.06,-0.44 -0.28,-0.7 -0.22,-0.28 -0.68,-0.28 -0.46,0 -0.68,0.28 -0.22,0.26 -0.3,0.7 -0.06,0.44 -0.06,0.98 v 4.24 q 0,0.54 0.06,1 0.08,0.44 0.3,0.7 0.22,0.26 0.68,0.26 z m 9.08,1.88 q -1.26,0 -2.08,-0.46 -0.82,-0.48 -1.24,-1.38 -0.4,-0.9 -0.4,-2.18 v -3.88 q 0,-1.28 0.4,-2.18 0.42,-0.9 1.24,-1.36 0.82,-0.48 2.08,-0.48 1.26,0 2.08,0.48 0.84,0.46 1.24,1.36 0.42,0.9 0.42,2.18 v 3.88 q 0,1.28 -0.42,2.18 -0.4,0.9 -1.24,1.38 -0.82,0.46 -2.08,0.46 z m 0.02,-1.88 q 0.46,0 0.68,-0.26 0.22,-0.26 0.28,-0.7 0.06,-0.46 0.06,-1 v -4.24 q 0,-0.54 -0.06,-0.98 -0.06,-0.44 -0.28,-0.7 -0.22,-0.28 -0.68,-0.28 -0.46,0 -0.68,0.28 -0.22,0.26 -0.3,0.7 -0.06,0.44 -0.06,0.98 v 4.24 q 0,0.54 0.06,1 0.08,0.44 0.3,0.7 0.22,0.26 0.68,0.26 z m 5.57999,1.7 v -11.56 h 2.62 v 1 q 0.6,-0.64 1.3,-0.92 0.7,-0.3 1.42,-0.3 0.68,0 1.18,0.34 0.52,0.34 0.76,1.08 0.66,-0.76 1.4,-1.08 0.74,-0.34 1.52,-0.34 0.62,0 1.1,0.32 0.48,0.3 0.76,0.92 0.28,0.6 0.28,1.52 v 9.02 h -2.6 v -8.78 q 0,-0.66 -0.22,-0.9 -0.22,-0.26 -0.62,-0.26 -0.32,0 -0.72,0.18 -0.38,0.18 -0.7,0.5 0,0.06 0,0.12 0,0.04 0,0.12 v 9.02 h -2.58 v -8.78 q 0,-0.66 -0.24,-0.9 -0.22,-0.26 -0.62,-0.26 -0.32,0 -0.7,0.18 -0.38,0.18 -0.72,0.5 v 9.26 z m 17.50001,0.18 q -1.46,0 -2.4,-0.78 -0.94,-0.78 -1.34,-2.28 l 2.02,-0.78 q 0.24,0.94 0.64,1.44 0.4,0.5 1.04,0.5 0.48,0 0.72,-0.24 0.24,-0.24 0.24,-0.66 0,-0.48 -0.3,-0.86 -0.28,-0.4 -0.98,-0.98 l -1.4,-1.18 q -0.76,-0.66 -1.24,-1.34 -0.46,-0.7 -0.46,-1.74 0,-0.94 0.42,-1.6 0.44,-0.68 1.18,-1.04 0.76,-0.38 1.68,-0.38 1.44,0 2.3,0.84 0.86,0.82 1.12,2.16 l -1.84,0.76 q -0.1,-0.48 -0.3,-0.88 -0.18,-0.42 -0.48,-0.68 -0.3,-0.26 -0.72,-0.26 -0.42,0 -0.68,0.26 -0.24,0.26 -0.24,0.66 0,0.34 0.28,0.7 0.3,0.36 0.84,0.82 l 1.42,1.28 q 0.46,0.4 0.88,0.86 0.42,0.46 0.7,1.04 0.28,0.56 0.28,1.3 0,1 -0.46,1.68 -0.44,0.68 -1.22,1.04 -0.76,0.34 -1.7,0.34 z"
         id="path2" /><path
         style="fill:#000000"
         d="m 507.85996,24.871349 8.88672,-8.867187 q 0.3125,-0.3125 0.69336,-0.488281 0.39063,-0.175782 0.83008,-0.175782 0.42969,0 0.81055,0.166016 0.39062,0.166016 0.67382,0.449219 0.29297,0.283203 0.45899,0.664062 0.16601,0.38086 0.16601,0.810547 0,0.46875 -0.17578,0.84961 -0.16601,0.371093 -0.48828,0.693359 l -8.88672,8.886719 v 0.146484 q 0,0.117188 -0.01,0.234375 -0.01,0.117188 -0.0293,0.224609 0.43945,0.751954 0.43945,1.640625 0,0.673829 -0.27343,1.25 -0.27344,0.576172 -0.74219,1.044922 l -4.98047,4.990235 q -0.19531,0.195312 -0.45899,0.302734 -0.2539,0.107422 -0.5371,0.107422 -0.28321,0 -0.54688,-0.107422 -0.25391,-0.107422 -0.44922,-0.302734 l -4.91211,-4.91211 q -0.19531,-0.195312 -0.30273,-0.449218 -0.10742,-0.263672 -0.10742,-0.546875 0,-0.273438 0.10742,-0.53711 0.10742,-0.263672 0.30273,-0.458984 l 4.97071,-4.970703 q 0.46875,-0.46875 1.07421,-0.742188 0.61524,-0.283203 1.28907,-0.283203 0.83007,0 1.5625,0.419922 0.16601,-0.01953 0.3125,-0.0293 0.15625,-0.0098 0.32226,-0.0098 z m -2.21679,1.025391 q -0.25391,0 -0.45899,0.05859 -0.20508,0.04883 -0.38086,0.15625 -0.16601,0.09766 -0.33203,0.234375 -0.15625,0.136719 -0.32227,0.3125 l 4.20899,4.208984 q 0.35156,-0.332031 0.55664,-0.654297 0.20508,-0.332031 0.20508,-0.830078 0,-0.351562 -0.13672,-0.673828 -0.12695,-0.332031 -0.37109,-0.576172 l -1.72852,-1.728515 q -0.24414,-0.244141 -0.57617,-0.371094 -0.32227,-0.136719 -0.66406,-0.136719 z m -1.99219,1.259766 -0.57617,0.566406 4.21875,4.21875 0.57617,-0.576172 z m -4.32617,4.326172 0.57617,0.576171 3.26172,-3.261718 -0.57618,-0.576172 z m 0.82031,0.830078 0.45898,0.449218 3.26172,-3.261718 -0.45898,-0.449219 z m 0.70312,0.703125 0.45899,0.449218 3.26172,-3.261718 q -0.10743,-0.107422 -0.22461,-0.22461 -0.10742,-0.117187 -0.23438,-0.224609 z m 0.70313,0.703125 0.44922,0.449218 3.26172,-3.261718 -0.44922,-0.449219 z m 0.70312,0.693359 0.44922,0.458984 3.26172,-3.261718 q -0.10742,-0.126953 -0.22461,-0.22461 -0.11719,-0.107422 -0.22461,-0.234375 z m 0.70313,0.703125 0.57617,0.576172 3.26172,-3.261719 -0.57617,-0.576172 z m 6.31836,-7.685547 9.49219,-9.492187 q 0.20507,-0.205078 0.20507,-0.488282 0,-0.292968 -0.20507,-0.498046 -0.20508,-0.205079 -0.49805,-0.205079 -0.2832,0 -0.48828,0.205079 l -9.49219,9.482421 q 0.0977,0.06836 0.23437,0.205079 0.14649,0.126953 0.28321,0.273437 0.14648,0.146484 0.27344,0.292969 0.12695,0.136719 0.19531,0.224609 z"
         id="path3" /></g><g
       inkscape:groupmode="layer"
       id="layer2"
       inkscape:label="Layer 2"><path
         style="font-variation-settings:'wght' 500;fill:#7a7173;fill-opacity:1;stroke-width:7.22299"
         d="M -0.08623693,13.194251 H 160.13012 l 0.12196,-1.522057 H -1.097617 v 1.570202 z"
         id="path8" /><path
         style="font-variation-settings:'wght' 500;fill:#eca70a;fill-opacity:1;stroke-width:0.786468"
         d="m 496.65693,36.911014 -0.26569,-0.2668 1.61284,-1.612644 1.61283,-1.612644 0.27416,0.273018 0.27416,0.273018 -1.60624,1.606426 c -0.88342,0.883534 -1.61301,1.606426 -1.6213,1.606426 -0.008,0 -0.13463,-0.12006 -0.28076,-0.2668 z"
         id="path10"
         transform="scale(0.26458333)" /><path
         style="font-variation-settings:'wght' 500;fill:#eca70a;fill-opacity:1;stroke-width:0.786468"
         d="m 495.88545,36.152716 -0.19551,-0.218449 1.61065,-1.610844 1.61065,-1.610844 0.21607,0.216066 0.21606,0.216066 -1.61303,1.613228 c -0.88717,0.887275 -1.62121,1.613227 -1.63121,1.613227 -0.01,0 -0.10615,-0.0983 -0.21368,-0.21845 z"
         id="path11"
         transform="scale(0.26458333)" /><path
         style="font-variation-settings:'wght' 500;fill:#eca70a;fill-opacity:1;stroke-width:0.786468"
         d="m 495.18791,35.470818 -0.20817,-0.209564 1.62062,-1.620426 1.62061,-1.620426 0.20817,0.209564 0.20817,0.209564 -1.62062,1.620426 -1.62062,1.620426 z"
         id="path12"
         transform="scale(0.26458333)" /><path
         style="font-variation-settings:'wght' 500;fill:#eca70a;fill-opacity:1;stroke-width:0.786468"
         d="m 494.48941,34.758389 -0.21606,-0.199167 1.61319,-1.614802 c 0.88726,-0.888141 1.62377,-1.614802 1.63668,-1.614802 0.0129,0 0.11324,0.09399 0.22295,0.208865 l 0.19946,0.208864 -1.60557,1.606093 c -0.88307,0.883351 -1.61211,1.605648 -1.62008,1.605104 -0.008,-5.44e-4 -0.11173,-0.09061 -0.23057,-0.200155 z"
         id="path13"
         transform="scale(0.26458333)" /><path
         style="font-variation-settings:'wght' 500;fill:#eca70a;fill-opacity:1;stroke-width:0.786468"
         d="m 493.78985,34.057552 -0.22422,-0.20716 1.62185,-1.620811 1.62186,-1.620812 0.21528,0.216726 0.21528,0.216726 -1.61292,1.611245 -1.61291,1.611245 z"
         id="path14"
         transform="scale(0.26458333)" /><path
         style="font-variation-settings:'wght' 500;fill:#eca70a;fill-opacity:1;stroke-width:0.786468"
         d="m 493.02702,33.281099 -0.2657,-0.2668 1.61284,-1.612644 1.61284,-1.612643 0.27416,0.273018 0.27415,0.273018 -1.60623,1.606426 c -0.88343,0.883534 -1.61302,1.606425 -1.6213,1.606425 -0.008,0 -0.13463,-0.12006 -0.28076,-0.2668 z"
         id="path15"
         transform="scale(0.26458333)" /><path
         style="font-variation-settings:'wght' 500;fill:#eca70a;fill-opacity:1;stroke-width:0.556117"
         d="m 400.76235,36.927375 -0.27985,-0.280385 1.61936,-1.619262 1.61936,-1.619263 0.28007,0.280068 0.28006,0.280068 -1.61957,1.619579 -1.61958,1.61958 z"
         id="path16"
         transform="scale(0.26458333)" /><path
         style="font-variation-settings:'wght' 500;fill:#eca70a;fill-opacity:1;stroke-width:0.556117"
         d="m 399.9967,36.176295 c -0.11386,-0.120901 -0.20703,-0.224826 -0.20703,-0.230946 0,-0.0061 0.72657,-0.73765 1.6146,-1.625624 l 1.61459,-1.614498 0.21865,0.219327 0.21865,0.219328 -1.62622,1.626117 -1.62621,1.626117 z"
         id="path17"
         transform="scale(0.26458333)" /><path
         style="font-variation-settings:'wght' 500;fill:#eca70a;fill-opacity:1;stroke-width:0.556117"
         d="m 399.28023,35.465614 -0.21334,-0.214069 1.62434,-1.624341 1.62434,-1.62434 0.21895,0.218956 0.21896,0.218955 -1.61936,1.619454 c -0.89065,0.8907 -1.62413,1.619454 -1.62996,1.619454 -0.006,0 -0.1066,-0.09633 -0.22393,-0.214069 z"
         id="path18"
         transform="scale(0.26458333)" /><path
         style="font-variation-settings:'wght' 500;fill:#eca70a;fill-opacity:1;stroke-width:0.556117"
         d="m 398.58008,34.759671 -0.21982,-0.207029 1.62611,-1.626212 1.62612,-1.626213 0.21933,0.218648 0.21933,0.218647 -1.6145,1.614594 c -0.88798,0.888027 -1.61951,1.614594 -1.62563,1.614594 -0.006,0 -0.11004,-0.09316 -0.23094,-0.207029 z"
         id="path19"
         transform="scale(0.26458333)" /><path
         style="font-variation-settings:'wght' 500;fill:#eca70a;fill-opacity:1;stroke-width:0.556117"
         d="m 397.88486,34.061851 -0.22395,-0.212478 1.62453,-1.626052 1.62453,-1.626051 0.21897,0.218972 0.21897,0.218971 -1.61955,1.619558 -1.61956,1.619558 z"
         id="path20"
         transform="scale(0.26458333)" /><path
         style="font-variation-settings:'wght' 500;fill:#eca70a;fill-opacity:1;stroke-width:0.556117"
         d="m 397.12096,33.285981 -0.27455,-0.275125 1.61916,-1.619264 1.61917,-1.619263 0.28037,0.279832 0.28037,0.279832 -1.61446,1.614556 c -0.88796,0.888007 -1.6192,1.614557 -1.62498,1.614557 -0.006,0 -0.13407,-0.123806 -0.28508,-0.275125 z"
         id="path21"
         transform="scale(0.26458333)" /><path
         style="font-variation-settings:'wght' 500;fill:#f4ab57;fill-opacity:1;stroke-width:0.786468"
         d="m 402.6967,31.365102 -2.09578,-2.095931 0.28112,-0.279978 0.28112,-0.279977 2.09626,2.095367 2.09626,2.095368 -0.2816,0.280541 -0.28159,0.28054 z"
         id="path22"
         transform="scale(0.26458333)" /><path
         style="font-variation-settings:'wght' 500;fill:#f4ab57;fill-opacity:1;stroke-width:0.786468"
         d="m 403.76824,30.275974 -2.08536,-2.085504 0.14347,-0.145814 c 0.20635,-0.209734 0.53593,-0.42813 0.77343,-0.512507 0.28982,-0.102962 0.74753,-0.10657 1.04094,-0.0082 0.44302,0.148525 0.47893,0.177101 1.52234,1.211458 0.53624,0.531584 1.03272,1.046794 1.10328,1.14491 0.23019,0.320047 0.33226,0.644488 0.33206,1.055475 -2.5e-4,0.502403 -0.10177,0.736699 -0.53537,1.235549 -0.0787,0.09059 -0.15808,0.170432 -0.1763,0.177426 -0.0182,0.007 -0.97155,-0.925762 -2.11849,-2.072788 z"
         id="path23"
         transform="scale(0.26458333)" /><path
         style="font-variation-settings:'wght' 500;fill:#f4ab57;fill-opacity:1;stroke-width:0.786468"
         d="m 499.675,30.277494 -2.08864,-2.091703 0.2125,-0.200702 c 0.41087,-0.388061 0.74186,-0.528339 1.24235,-0.526521 0.24893,9.05e-4 0.34439,0.01486 0.53914,0.07884 0.39923,0.13114 0.56426,0.266619 1.62489,1.333965 l 0.96846,0.974595 0.13162,0.273684 c 0.16329,0.339522 0.20473,0.5463 0.18623,0.929202 -0.0219,0.452542 -0.14741,0.715251 -0.53481,1.119067 l -0.1931,0.20128 z"
         id="path24"
         transform="scale(0.26458333)" /><path
         style="font-variation-settings:'wght' 500;fill:#f4ab57;fill-opacity:1;stroke-width:0.786468"
         d="m 498.59981,31.363567 -2.09732,-2.097465 0.26274,-0.257437 c 0.1445,-0.141591 0.27175,-0.260696 0.28277,-0.264678 0.011,-0.004 0.96428,0.929424 2.11835,2.074236 l 2.09833,2.081477 -0.28378,0.280666 -0.28377,0.280666 z"
         id="path25"
         transform="scale(0.26458333)" /></g><g
       inkscape:groupmode="layer"
       id="layer3"
       inkscape:label="Layer 3" /><path
       style="font-variation-settings:'wght' 500;fill:#8e562e;fill-opacity:1;stroke-width:0.786468"
       d="m 406.53601,28.662997 c -0.13468,-0.150505 -0.35041,-0.368706 -0.4794,-0.484892 l -0.23453,-0.211248 4.78633,-4.785159 c 3.40936,-3.408531 4.81713,-4.797893 4.89343,-4.829419 0.14123,-0.05836 0.43181,-0.05721 0.54972,0.0022 0.34729,0.174922 0.50073,0.581675 0.34226,0.907249 -0.0451,0.09258 -1.34628,1.410877 -4.83729,4.900789 l -4.77565,4.774145 z"
       id="path27"
       transform="scale(0.26458333)" /><path
       style="font-variation-settings:'wght' 500;fill:#8e562e;fill-opacity:1;stroke-width:0.786468"
       d="m 502.39822,28.627025 c -0.15802,-0.169362 -0.37353,-0.387404 -0.47891,-0.484539 l -0.1916,-0.176608 4.78583,-4.78467 c 3.409,-3.408177 4.81665,-4.797403 4.89294,-4.828929 0.13774,-0.05692 0.39784,-0.05671 0.53481,4.15e-4 0.14162,0.05907 0.2888,0.201834 0.35487,0.344246 0.0729,0.157212 0.0719,0.421941 -0.002,0.574284 -0.039,0.07999 -1.57139,1.630729 -4.83269,4.89043 l -4.77564,4.773302 z"
       id="path28"
       transform="scale(0.26458333)" /></g></svg>
