<?xml version="1.0" encoding="UTF-8" standalone="no"?>
<!-- Created with Inkscape (http://www.inkscape.org/) -->

<svg
   width="600"
   height="50"
   viewBox="0 0 158.74999 13.229166"
   version="1.1"
   id="svg1"
   xml:space="preserve"
   inkscape:version="1.3 (0e150ed6c4, 2023-07-21)"
   sodipodi:docname="Stats.svg"
   xmlns:inkscape="http://www.inkscape.org/namespaces/inkscape"
   xmlns:sodipodi="http://sodipodi.sourceforge.net/DTD/sodipodi-0.dtd"
   xmlns="http://www.w3.org/2000/svg"
   xmlns:svg="http://www.w3.org/2000/svg"><sodipodi:namedview
     id="namedview1"
     pagecolor="#505050"
     bordercolor="#eeeeee"
     borderopacity="1"
     inkscape:showpageshadow="0"
     inkscape:pageopacity="0"
     inkscape:pagecheckerboard="0"
     inkscape:deskcolor="#505050"
     inkscape:document-units="mm"
     inkscape:zoom="2.1694727"
     inkscape:cx="248.90841"
     inkscape:cy="-46.324621"
     inkscape:window-width="1920"
     inkscape:window-height="1057"
     inkscape:window-x="-8"
     inkscape:window-y="-8"
     inkscape:window-maximized="1"
     inkscape:current-layer="layer2" /><defs
     id="defs1"><rect
       x="-1.843766"
       y="0"
       width="597.38018"
       height="41.484735"
       id="rect2" /><rect
       x="0"
       y="0.65186973"
       width="599.72016"
       height="43.023403"
       id="rect8" /><rect
       x="0.65186973"
       y="1.9556092"
       width="597.76455"
       height="41.719663"
       id="rect7" /><rect
       x="323.32739"
       y="14.993004"
       width="275.7409"
       height="48.89023"
       id="rect6" /><rect
       x="435.58973"
       y="17.054836"
       width="62.227104"
       height="20.281426"
       id="rect5" /><rect
       x="0.46094151"
       y="0.46094151"
       width="310.67458"
       height="48.398859"
       id="rect4" /><rect
       x="0"
       y="0"
       width="599.22396"
       height="50.703566"
       id="rect3" /><rect
       x="0.92188302"
       y="0.92188302"
       width="598.30208"
       height="48.8598"
       id="rect1" /></defs><g
     inkscape:label="Layer 1"
     inkscape:groupmode="layer"
     id="layer1"><g
       inkscape:groupmode="layer"
       id="layer2"
       inkscape:label="Layer 2"><path
         style="font-variation-settings:'wght' 500;fill:#7a7173;fill-opacity:1;stroke-width:7.22299"
         d="M -0.08623693,13.194251 H 160.13012 l 0.12196,-1.522057 H -1.097617 v 1.570202 z"
         id="path8" /><g
         id="text1"
         style="font-size:21px;font-family:Oswald;-inkscape-font-specification:'Oswald, @wght=500';font-variation-settings:'wght' 500;text-align:center;white-space:pre;fill:#7a7173;stroke-width:27.2995"
         transform="matrix(0.26458333,0,0,0.26458333,0,2.9320557)"
         aria-label="ðŸ† Witches Stats ðŸ†"><path
           style="fill:#ffc107"
           d="m 215.92253,3.3184325 q 0.30762,0 0.57422,0.112793 0.2666,0.112793 0.46143,0.3178711 0.20507,0.1948242 0.31787,0.4614258 0.12304,0.2666015 0.12304,0.5742187 v 5.0859375 q -0.63574,-0.1230469 -1.1792,-0.4511719 -0.5332,-0.3383789 -0.9331,-0.8100586 -0.38965,-0.4819336 -0.61524,-1.0766601 -0.22558,-0.6049805 -0.22558,-1.2714844 V 4.7847411 q 0,-0.3076172 0.11279,-0.5742187 0.12305,-0.2666016 0.31787,-0.4614258 0.20508,-0.2050781 0.47168,-0.3178711 0.2666,-0.112793 0.57422,-0.112793 z m 13.26856,0 q 0.30761,0 0.57421,0.112793 0.26661,0.112793 0.46143,0.3178711 0.20508,0.1948242 0.31787,0.4614258 0.12305,0.2666015 0.12305,0.5742187 v 1.4765625 q 0,0.6665039 -0.22559,1.2714844 -0.22558,0.5947265 -0.62549,1.0766601 -0.38964,0.4716797 -0.9331,0.8100586 -0.54346,0.328125 -1.16895,0.4511719 V 4.7847411 q 0,-0.3076172 0.1128,-0.5742187 0.12304,-0.2666016 0.31787,-0.4614258 0.20508,-0.2050781 0.47168,-0.3178711 0.2666,-0.112793 0.57422,-0.112793 z m 0,-2.95312498 q 0.91259,0 1.7124,0.34863281 0.81006,0.34863277 1.40478,0.95361327 0.60498,0.5947266 0.95362,1.4047852 0.34863,0.7998047 0.34863,1.7124023 v 1.4765625 q 0,1.0766602 -0.33838,2.0712891 -0.33838,0.9946289 -0.94336,1.8251953 -0.59473,0.830566 -1.43555,1.456055 -0.84082,0.615234 -1.83544,0.943359 -0.15381,0.687012 -0.48194,1.302246 -0.32812,0.604981 -0.78955,1.097168 -0.46143,0.492188 -1.0459,0.851074 -0.57422,0.358887 -1.23047,0.553711 v 0.297364 q 0.89209,0.174316 1.57911,0.748535 0.69726,0.563965 1.05615,1.384277 h 0.67676 q 0.5332,0 1.00488,0.205078 0.47168,0.205078 0.82031,0.553711 0.34863,0.348633 0.55371,0.810059 0.20508,0.471679 0.20508,1.004883 v 2.583984 h -17.68799 v -2.583984 q 0,-0.533204 0.19483,-1.004883 0.20507,-0.461426 0.55371,-0.810059 0.34863,-0.348633 0.82031,-0.553711 0.47168,-0.205078 1.00488,-0.205078 h 0.67676 q 0.35889,-0.820312 1.0459,-1.384277 0.69726,-0.574219 1.59961,-0.748535 v -0.297364 q -0.66651,-0.194824 -1.25098,-0.553711 -0.57422,-0.36914 -1.0459,-0.861328 -0.46142,-0.492187 -0.78955,-1.097168 -0.32812,-0.60498 -0.48193,-1.291992 -0.99463,-0.328125 -1.83545,-0.943359 -0.83057,-0.625489 -1.43555,-1.456055 -0.59472,-0.8305664 -0.9331,-1.8251953 Q 211.5031,7.3379638 211.5031,6.2613036 V 4.7847411 q 0,-0.9125976 0.34863,-1.7124023 0.34863,-0.8100586 0.94336,-1.4047852 0.60498,-0.6049805 1.40478,-0.95361327 0.81006,-0.34863281 1.72266,-0.34863281 z M 216.29167,20.26814 q -0.22558,0 -0.43066,0.08203 -0.19483,0.09229 -0.34864,0.23584 -0.1538,0.153808 -0.24609,0.348632 -0.082,0.205079 -0.082,0.430665 v 1.107421 h 14.74512 v -1.107421 q 0,-0.225586 -0.0923,-0.430665 -0.082,-0.194824 -0.23584,-0.348632 -0.14355,-0.143555 -0.34863,-0.23584 -0.20508,-0.08203 -0.43066,-0.08203 z M 232.13396,4.7847411 q 0,-0.6049805 -0.23584,-1.1381836 -0.22559,-0.543457 -0.62549,-0.9433594 -0.3999,-0.3999023 -0.93311,-0.6254882 -0.5332,-0.2358399 -1.14843,-0.2358399 -0.39991,0 -0.7793,0.1025391 -0.36914,0.102539 -0.69727,0.2871094 V 1.84187 H 217.39909 V 2.2315185 Q 217.07097,2.0469481 216.70183,1.9444091 216.33269,1.84187 215.92253,1.84187 q -0.60498,0 -1.14844,0.2358399 -0.5332,0.2255859 -0.9331,0.6254882 -0.3999,0.3999024 -0.63574,0.9433594 -0.22559,0.5332031 -0.22559,1.1381836 v 1.4765625 q 0,0.9741211 0.33838,1.8457031 0.33838,0.8613282 0.9331,1.5483399 0.59473,0.6767574 1.39454,1.1279294 0.81005,0.451172 1.75341,0.584473 v 0.05127 q 0,0.769043 0.28711,1.445801 0.28711,0.666504 0.78955,1.168946 0.50245,0.492187 1.16895,0.78955 0.67676,0.28711 1.43555,0.28711 v 2.942871 h -0.73829 q -0.35888,0 -0.68701,0.112793 -0.32812,0.102539 -0.60498,0.307617 -0.2666,0.194824 -0.47168,0.47168 -0.20508,0.266601 -0.31787,0.584472 h 8.59278 q -0.23584,-0.645996 -0.79981,-1.056152 -0.55371,-0.42041 -1.28174,-0.42041 h -0.73828 v -2.942871 q 0.75879,0 1.42529,-0.28711 0.67676,-0.297363 1.16895,-0.78955 0.50244,-0.502442 0.78955,-1.168946 0.29736,-0.676758 0.29736,-1.445801 v -0.05127 q 0.93311,-0.133301 1.74317,-0.584473 0.81006,-0.451172 1.40478,-1.1279294 0.59473,-0.6870117 0.93311,-1.5483399 0.33838,-0.871582 0.33838,-1.8457031 z m -6.62403,-1.4663086 q 0.29737,0 0.5127,0.215332 0.21533,0.2153321 0.21533,0.5126954 v 6.6342771 q 0,0.615235 -0.23584,1.158692 -0.22558,0.533203 -0.62549,0.933105 -0.3999,0.399902 -0.9331,0.635742 -0.53321,0.225586 -1.14844,0.225586 -0.30762,0 -0.52295,-0.215332 -0.21533,-0.215332 -0.21533,-0.522949 0,-0.307617 0.21533,-0.522949 0.21533,-0.215332 0.52295,-0.215332 0.30762,0 0.57422,-0.112793 0.2666,-0.112793 0.46142,-0.307617 0.20508,-0.205079 0.31788,-0.47168 0.12304,-0.276856 0.12304,-0.584473 V 4.0464599 q 0,-0.2973633 0.21533,-0.5126954 0.21534,-0.215332 0.52295,-0.215332 z"
           id="path1" /><path
           d="m 244.41477,19.529858 -2.415,-17.0099997 h 2.604 l 1.407,11.0249997 1.764,-10.9829997 h 2.121 l 1.806,10.9829997 1.386,-11.0249997 h 2.562 l -2.373,17.0099997 h -2.52 l -1.89,-11.4029997 -1.869,11.4029997 z m 13.062,0 V 7.3918583 h 2.856 V 19.529858 Z m 0,-14.0699997 v -2.373 h 2.856 v 2.373 z m 8.65198,14.2169997 q -1.155,0 -1.827,-0.378 -0.651,-0.378 -0.924,-1.092 -0.273,-0.714 -0.273,-1.701 V 9.2818583 h -1.218 v -1.89 h 1.218 v -3.633 h 2.877 v 3.633 h 1.848 v 1.89 h -1.848 v 6.9719997 q 0,0.63 0.273,0.903 0.273,0.252 0.819,0.252 0.231,0 0.441,-0.021 0.231,-0.021 0.441,-0.042 v 2.184 q -0.357,0.042 -0.84,0.084 -0.462,0.063 -0.987,0.063 z m 7.056,0.042 q -1.407,0 -2.268,-0.525 -0.84,-0.546 -1.239,-1.533 -0.378,-1.008 -0.378,-2.373 v -3.654 q 0,-1.407 0.378,-2.3939997 0.399,-0.987 1.26,-1.512 0.861,-0.525 2.247,-0.525 1.302,0 2.121,0.42 0.84,0.399 1.218,1.239 0.378,0.819 0.378,2.0789997 v 1.008 h -2.688 v -1.071 q 0,-0.63 -0.105,-0.9869997 -0.084,-0.378 -0.315,-0.525 -0.231,-0.168 -0.609,-0.168 -0.378,0 -0.609,0.21 -0.231,0.189 -0.336,0.6299997 -0.084,0.441 -0.084,1.218 v 4.452 q 0,1.176 0.252,1.596 0.252,0.399 0.798,0.399 0.42,0 0.63,-0.189 0.231,-0.189 0.294,-0.546 0.084,-0.378 0.084,-0.903 v -1.302 h 2.688 v 1.155 q 0,1.218 -0.399,2.079 -0.378,0.861 -1.218,1.302 -0.819,0.42 -2.1,0.42 z m 5.62801,-0.189 V 2.5198583 h 2.856 v 6.027 q 0.63,-0.63 1.365,-0.987 0.756,-0.357 1.638,-0.357 0.735,0 1.176,0.378 0.441,0.357 0.651,0.966 0.21,0.609 0.21,1.323 v 9.6599997 h -2.856 v -9.093 q 0,-0.5459997 -0.168,-0.8399997 -0.168,-0.294 -0.651,-0.294 -0.294,0 -0.672,0.168 -0.357,0.168 -0.693,0.441 v 9.6179997 z m 13.67102,0.189 q -1.365,0 -2.226,-0.504 -0.861,-0.525 -1.281,-1.512 -0.399,-1.008 -0.399,-2.415 v -3.654 q 0,-1.449 0.399,-2.4359997 0.42,-0.987 1.281,-1.491 0.882,-0.504 2.226,-0.504 1.449,0 2.247,0.546 0.819,0.546 1.155,1.596 0.357,1.0289997 0.357,2.5199997 v 1.722 h -4.83 v 2.394 q 0,0.588 0.105,0.966 0.126,0.378 0.378,0.546 0.252,0.168 0.609,0.168 0.378,0 0.609,-0.168 0.231,-0.189 0.336,-0.525 0.105,-0.357 0.105,-0.882 v -1.008 h 2.667 v 0.819 q 0,1.848 -0.924,2.835 -0.924,0.987 -2.814,0.987 z m -1.071,-7.539 h 2.142 v -1.155 q 0,-0.63 -0.105,-1.008 -0.105,-0.3989997 -0.336,-0.5669997 -0.231,-0.189 -0.651,-0.189 -0.378,0 -0.609,0.189 -0.231,0.189 -0.336,0.6299997 -0.105,0.441 -0.105,1.26 z m 10.05898,7.539 q -1.533,0 -2.52,-0.819 -0.987,-0.819 -1.407,-2.394 l 2.121,-0.819 q 0.252,0.987 0.672,1.512 0.42,0.525 1.092,0.525 0.504,0 0.756,-0.252 0.252,-0.252 0.252,-0.693 0,-0.504 -0.315,-0.903 -0.294,-0.42 -1.029,-1.029 l -1.47,-1.239 q -0.798,-0.693 -1.302,-1.407 -0.483,-0.735 -0.483,-1.827 0,-0.9869997 0.441,-1.6799997 0.462,-0.714 1.239,-1.092 0.798,-0.399 1.764,-0.399 1.512,0 2.415,0.882 0.903,0.861 1.176,2.2679997 l -1.932,0.798 q -0.105,-0.504 -0.315,-0.924 -0.189,-0.4409997 -0.504,-0.7139997 -0.315,-0.273 -0.756,-0.273 -0.441,0 -0.714,0.273 -0.252,0.273 -0.252,0.6929997 0,0.357 0.294,0.735 0.315,0.378 0.882,0.861 l 1.491,1.344 q 0.483,0.42 0.924,0.903 0.441,0.483 0.735,1.092 0.294,0.588 0.294,1.365 0,1.05 -0.483,1.764 -0.462,0.714 -1.281,1.092 -0.798,0.357 -1.785,0.357 z m 14.67899,0.042 q -1.533,0 -2.562,-0.588 -1.029,-0.609 -1.554,-1.764 -0.525,-1.155 -0.588,-2.835 l 2.667,-0.525 q 0.042,0.987 0.231,1.743 0.21,0.756 0.609,1.176 0.42,0.399 1.092,0.399 0.756,0 1.071,-0.441 0.315,-0.462 0.315,-1.155 0,-1.113 -0.504,-1.827 -0.504,-0.714 -1.344,-1.428 l -2.142,-1.89 q -0.903,-0.7769997 -1.449,-1.7219997 -0.525,-0.966 -0.525,-2.373 0,-2.016 1.176,-3.108 1.176,-1.092 3.213,-1.092 1.197,0 1.995,0.378 0.798,0.357 1.26,1.008 0.483,0.651 0.714,1.491 0.231,0.819 0.294,1.743 l -2.646,0.462 q -0.042,-0.798 -0.189,-1.428 -0.126,-0.63 -0.483,-0.987 -0.336,-0.357 -1.008,-0.357 -0.693,0 -1.071,0.462 -0.357,0.441 -0.357,1.113 0,0.861 0.357,1.428 0.357,0.546 1.029,1.134 l 2.121,1.8689997 q 1.05,0.882 1.785,2.079 0.756,1.176 0.756,2.856 0,1.218 -0.546,2.163 -0.525,0.945 -1.491,1.491 -0.945,0.525 -2.226,0.525 z m 9.42899,-0.084 q -1.155,0 -1.827,-0.378 -0.651,-0.378 -0.924,-1.092 -0.273,-0.714 -0.273,-1.701 V 9.2818583 h -1.218 v -1.89 h 1.218 v -3.633 h 2.877 v 3.633 h 1.848 v 1.89 h -1.848 v 6.9719997 q 0,0.63 0.273,0.903 0.273,0.252 0.819,0.252 0.231,0 0.441,-0.021 0.231,-0.021 0.441,-0.042 v 2.184 q -0.357,0.042 -0.84,0.084 -0.462,0.063 -0.987,0.063 z m 5.418,0.042 q -0.819,0 -1.428,-0.42 -0.588,-0.441 -0.903,-1.092 -0.315,-0.672 -0.315,-1.386 0,-1.134 0.42,-1.911 0.42,-0.777 1.113,-1.302 0.714,-0.525 1.575,-0.903 0.882,-0.399 1.806,-0.714 v -1.05 q 0,-0.525 -0.084,-0.882 -0.063,-0.3569997 -0.273,-0.5459997 -0.21,-0.189 -0.609,-0.189 -0.378,0 -0.609,0.168 -0.21,0.168 -0.315,0.483 -0.084,0.2939997 -0.084,0.6929997 l -0.042,0.735 -2.73,-0.105 q 0.084,-2.0999997 1.05,-3.0869997 0.966,-1.008 2.961,-1.008 1.827,0 2.667,1.008 0.84,1.008 0.84,2.7299997 v 5.607 q 0,0.672 0.021,1.218 0.042,0.546 0.084,0.987 0.063,0.441 0.105,0.777 h -2.583 q -0.063,-0.42 -0.147,-0.945 -0.084,-0.546 -0.126,-0.798 -0.21,0.735 -0.798,1.344 -0.588,0.588 -1.596,0.588 z m 1.05,-2.121 q 0.273,0 0.504,-0.126 0.231,-0.147 0.42,-0.336 0.189,-0.189 0.294,-0.336 v -3.381 q -0.483,0.273 -0.903,0.546 -0.399,0.273 -0.693,0.609 -0.294,0.315 -0.462,0.693 -0.168,0.378 -0.168,0.882 0,0.672 0.252,1.071 0.273,0.378 0.756,0.378 z m 9.58686,2.079 q -1.155,0 -1.827,-0.378 -0.651,-0.378 -0.924,-1.092 -0.273,-0.714 -0.273,-1.701 V 9.2818583 h -1.218 v -1.89 h 1.218 v -3.633 h 2.877 v 3.633 h 1.848 v 1.89 h -1.848 v 6.9719997 q 0,0.63 0.273,0.903 0.273,0.252 0.819,0.252 0.231,0 0.441,-0.021 0.231,-0.021 0.441,-0.042 v 2.184 q -0.357,0.042 -0.84,0.084 -0.462,0.063 -0.987,0.063 z m 6.699,0.042 q -1.533,0 -2.52,-0.819 -0.987,-0.819 -1.407,-2.394 l 2.121,-0.819 q 0.252,0.987 0.672,1.512 0.42,0.525 1.092,0.525 0.504,0 0.756,-0.252 0.252,-0.252 0.252,-0.693 0,-0.504 -0.315,-0.903 -0.294,-0.42 -1.029,-1.029 l -1.47,-1.239 q -0.798,-0.693 -1.302,-1.407 -0.483,-0.735 -0.483,-1.827 0,-0.9869997 0.441,-1.6799997 0.462,-0.714 1.239,-1.092 0.798,-0.399 1.764,-0.399 1.512,0 2.415,0.882 0.903,0.861 1.176,2.2679997 l -1.932,0.798 q -0.105,-0.504 -0.315,-0.924 -0.189,-0.4409997 -0.504,-0.7139997 -0.315,-0.273 -0.756,-0.273 -0.441,0 -0.714,0.273 -0.252,0.273 -0.252,0.6929997 0,0.357 0.294,0.735 0.315,0.378 0.882,0.861 l 1.491,1.344 q 0.483,0.42 0.924,0.903 0.441,0.483 0.735,1.092 0.294,0.588 0.294,1.365 0,1.05 -0.483,1.764 -0.462,0.714 -1.281,1.092 -0.798,0.357 -1.785,0.357 z"
           id="path2" /><path
           style="fill:#ffc107"
           d="m 364.49202,3.3184325 q 0.30762,0 0.57422,0.112793 0.2666,0.112793 0.46142,0.3178711 0.20508,0.1948242 0.31788,0.4614258 0.12304,0.2666015 0.12304,0.5742187 v 5.0859375 q -0.63574,-0.1230469 -1.1792,-0.4511719 -0.5332,-0.3383789 -0.9331,-0.8100586 -0.38965,-0.4819336 -0.61524,-1.0766601 -0.22558,-0.6049805 -0.22558,-1.2714844 V 4.7847411 q 0,-0.3076172 0.11279,-0.5742187 0.12305,-0.2666016 0.31787,-0.4614258 0.20508,-0.2050781 0.47168,-0.3178711 0.2666,-0.112793 0.57422,-0.112793 z m 13.26855,0 q 0.30762,0 0.57422,0.112793 0.2666,0.112793 0.46143,0.3178711 0.20508,0.1948242 0.31787,0.4614258 0.12305,0.2666015 0.12305,0.5742187 v 1.4765625 q 0,0.6665039 -0.22559,1.2714844 -0.22559,0.5947265 -0.62549,1.0766601 -0.38965,0.4716797 -0.9331,0.8100586 -0.54346,0.328125 -1.16895,0.4511719 V 4.7847411 q 0,-0.3076172 0.11279,-0.5742187 0.12305,-0.2666016 0.31788,-0.4614258 0.20507,-0.2050781 0.47168,-0.3178711 0.2666,-0.112793 0.57421,-0.112793 z m 0,-2.95312498 q 0.9126,0 1.71241,0.34863281 0.81006,0.34863277 1.40478,0.95361327 0.60498,0.5947266 0.95362,1.4047852 0.34863,0.7998047 0.34863,1.7124023 v 1.4765625 q 0,1.0766602 -0.33838,2.0712891 -0.33838,0.9946289 -0.94336,1.8251953 -0.59473,0.830566 -1.43555,1.456055 -0.84082,0.615234 -1.83545,0.943359 -0.15381,0.687012 -0.48193,1.302246 -0.32813,0.604981 -0.78955,1.097168 -0.46143,0.492188 -1.0459,0.851074 -0.57422,0.358887 -1.23047,0.553711 v 0.297364 q 0.89209,0.174316 1.5791,0.748535 0.69727,0.563965 1.05616,1.384277 h 0.67675 q 0.53321,0 1.00489,0.205078 0.47168,0.205078 0.82031,0.553711 0.34863,0.348633 0.55371,0.810059 0.20508,0.471679 0.20508,1.004883 v 2.583984 h -17.68799 v -2.583984 q 0,-0.533204 0.19482,-1.004883 0.20508,-0.461426 0.55371,-0.810059 0.34864,-0.348633 0.82032,-0.553711 0.47168,-0.205078 1.00488,-0.205078 h 0.67676 q 0.35888,-0.820312 1.0459,-1.384277 0.69726,-0.574219 1.59961,-0.748535 v -0.297364 q -0.66651,-0.194824 -1.25098,-0.553711 -0.57422,-0.36914 -1.0459,-0.861328 -0.46142,-0.492187 -0.78955,-1.097168 -0.32812,-0.60498 -0.48193,-1.291992 -0.99463,-0.328125 -1.83545,-0.943359 -0.83057,-0.625489 -1.43555,-1.456055 -0.59473,-0.8305664 -0.93311,-1.8251953 -0.33837,-0.9946289 -0.33837,-2.0712891 V 4.7847411 q 0,-0.9125976 0.34863,-1.7124023 0.34863,-0.8100586 0.94336,-1.4047852 0.60498,-0.6049805 1.40478,-0.95361327 0.81006,-0.34863281 1.72266,-0.34863281 z M 364.86116,20.26814 q -0.22559,0 -0.43066,0.08203 -0.19483,0.09229 -0.34864,0.23584 -0.15381,0.153808 -0.24609,0.348632 -0.082,0.205079 -0.082,0.430665 v 1.107421 h 14.74512 v -1.107421 q 0,-0.225586 -0.0923,-0.430665 -0.082,-0.194824 -0.23584,-0.348632 -0.14355,-0.143555 -0.34863,-0.23584 -0.20508,-0.08203 -0.43067,-0.08203 z M 380.70345,4.7847411 q 0,-0.6049805 -0.23584,-1.1381836 -0.22559,-0.543457 -0.62549,-0.9433594 -0.39991,-0.3999023 -0.93311,-0.6254882 -0.5332,-0.2358399 -1.14844,-0.2358399 -0.3999,0 -0.77929,0.1025391 -0.36914,0.102539 -0.69727,0.2871094 V 1.84187 H 365.96858 V 2.2315185 Q 365.64046,2.0469481 365.27132,1.9444091 364.90218,1.84187 364.49202,1.84187 q -0.60498,0 -1.14844,0.2358399 -0.5332,0.2255859 -0.9331,0.6254882 -0.39991,0.3999024 -0.63575,0.9433594 -0.22558,0.5332031 -0.22558,1.1381836 v 1.4765625 q 0,0.9741211 0.33838,1.8457031 0.33838,0.8613282 0.9331,1.5483399 0.59473,0.6767574 1.39453,1.1279294 0.81006,0.451172 1.75342,0.584473 v 0.05127 q 0,0.769043 0.28711,1.445801 0.28711,0.666504 0.78955,1.168946 0.50244,0.492187 1.16895,0.78955 0.67676,0.28711 1.43554,0.28711 v 2.942871 h -0.73828 q -0.35888,0 -0.68701,0.112793 -0.32812,0.102539 -0.60498,0.307617 -0.2666,0.194824 -0.47168,0.47168 -0.20508,0.266601 -0.31787,0.584472 h 8.59277 q -0.23584,-0.645996 -0.7998,-1.056152 -0.55371,-0.42041 -1.28174,-0.42041 h -0.73828 v -2.942871 q 0.75879,0 1.42529,-0.28711 0.67676,-0.297363 1.16895,-0.78955 0.50244,-0.502442 0.78955,-1.168946 0.29736,-0.676758 0.29736,-1.445801 v -0.05127 q 0.93311,-0.133301 1.74317,-0.584473 0.81005,-0.451172 1.40478,-1.1279294 0.59473,-0.6870117 0.93311,-1.5483399 0.33838,-0.871582 0.33838,-1.8457031 z m -6.62403,-1.4663086 q 0.29737,0 0.5127,0.215332 0.21533,0.2153321 0.21533,0.5126954 v 6.6342771 q 0,0.615235 -0.23584,1.158692 -0.22559,0.533203 -0.62549,0.933105 -0.3999,0.399902 -0.9331,0.635742 -0.53321,0.225586 -1.14844,0.225586 -0.30762,0 -0.52295,-0.215332 -0.21533,-0.215332 -0.21533,-0.522949 0,-0.307617 0.21533,-0.522949 0.21533,-0.215332 0.52295,-0.215332 0.30762,0 0.57422,-0.112793 0.2666,-0.112793 0.46142,-0.307617 0.20508,-0.205079 0.31787,-0.47168 0.12305,-0.276856 0.12305,-0.584473 V 4.0464599 q 0,-0.2973633 0.21533,-0.5126954 0.21533,-0.215332 0.52295,-0.215332 z"
           id="path3" /></g></g></g></svg>
