<?xml version="1.0" encoding="UTF-8" standalone="no"?>
<!-- Created with Inkscape (http://www.inkscape.org/) -->

<svg
   width="200"
   height="24"
   viewBox="0 0 52.916665 6.3499999"
   version="1.1"
   id="svg1"
   xml:space="preserve"
   inkscape:version="1.3 (0e150ed6c4, 2023-07-21)"
   sodipodi:docname="Witches Title.svg"
   xmlns:inkscape="http://www.inkscape.org/namespaces/inkscape"
   xmlns:sodipodi="http://sodipodi.sourceforge.net/DTD/sodipodi-0.dtd"
   xmlns="http://www.w3.org/2000/svg"
   xmlns:svg="http://www.w3.org/2000/svg"><sodipodi:namedview
     id="namedview1"
     pagecolor="#505050"
     bordercolor="#eeeeee"
     borderopacity="1"
     inkscape:showpageshadow="0"
     inkscape:pageopacity="0"
     inkscape:pagecheckerboard="0"
     inkscape:deskcolor="#505050"
     inkscape:document-units="mm"
     inkscape:zoom="3.0680976"
     inkscape:cx="93.217374"
     inkscape:cy="9.6150787"
     inkscape:window-width="1350"
     inkscape:window-height="1041"
     inkscape:window-x="351"
     inkscape:window-y="0"
     inkscape:window-maximized="0"
     inkscape:current-layer="layer1" /><defs
     id="defs1"><rect
       x="0"
       y="0"
       width="199.79807"
       height="22.163569"
       id="rect1" /></defs><g
     inkscape:label="Layer 1"
     inkscape:groupmode="layer"
     id="layer1"><g
       id="text1"
       style="font-size:18px;font-family:Oswald;-inkscape-font-specification:'Oswald, @wght=500';font-variation-settings:'wght' 500;text-align:center;white-space:pre;fill:#7a7173;stroke-width:27.2995"
       transform="matrix(0.26458333,0,0,0.26458333,0,0.48782976)"
       aria-label="🎃 Witches Night 🎃"><path
         style="fill:#fb5e00"
         d="m 37.993275,3.0553082 q 1.001953,0.2197266 1.907226,0.6591797 0.914063,0.4394531 1.6875,1.0546875 0.773438,0.6152344 1.388672,1.3886719 0.624024,0.7646484 1.054688,1.6523437 0.439453,0.8876954 0.676757,1.8720704 0.237305,0.9755856 0.237305,2.0039066 0,1.221679 -0.316406,2.355468 -0.316406,1.125 -0.896484,2.109375 -0.57129,0.975586 -1.379883,1.78418 -0.808594,0.808594 -1.792969,1.379883 -0.975586,0.580078 -2.109375,0.896484 -1.125,0.316406 -2.34668,0.316406 h -2.53125 q -1.221679,0 -2.355468,-0.316406 -1.125,-0.316406 -2.109375,-0.896484 -0.975586,-0.571289 -1.78418,-1.379883 -0.808594,-0.808594 -1.388672,-1.78418 -0.571289,-0.984375 -0.887695,-2.109375 -0.316407,-1.133789 -0.316407,-2.355468 0,-0.975586 0.210938,-1.916016 Q 25.161243,8.8209332 25.56554,7.9596051 25.969837,7.0894879 26.549915,6.3248395 27.138783,5.551402 27.885853,4.9185895 27.437611,4.426402 27.182728,3.9430035 26.936634,3.4596051 26.813587,2.9498395 26.69054,2.4400739 26.655384,1.895152 26.629017,1.341441 26.629017,0.70862854 V 0.31312073 H 37.993275 Z M 36.103626,19.262339 q 1.045899,0 2.012696,-0.27246 0.966796,-0.272461 1.810546,-0.764649 0.84375,-0.492187 1.529297,-1.186523 0.694336,-0.685547 1.186524,-1.529297 0.492187,-0.84375 0.764648,-1.810547 0.272461,-0.966797 0.272461,-2.012695 0,-0.922852 -0.219726,-1.7929691 Q 43.249134,9.0230817 42.853626,8.2408551 42.458118,7.4586285 41.886829,6.7906598 41.324329,6.113902 40.621204,5.5953473 39.918079,5.0680035 39.091908,4.716441 38.274525,4.3560895 37.360462,4.2066754 q -0.01758,0.3779297 -0.175781,0.703125 -0.158203,0.3251953 -0.413086,0.5712891 -0.254883,0.2373047 -0.588867,0.3779297 -0.333985,0.140625 -0.711914,0.140625 h -3.788086 q -0.606445,0 -1.195313,-0.1582032 -0.580078,-0.1669921 -1.098632,-0.4833984 -0.799805,0.5273438 -1.432618,1.2216797 -0.624023,0.6943359 -1.063476,1.5117187 -0.430664,0.8173829 -0.667969,1.7314454 -0.228516,0.9140626 -0.228516,1.8632816 0,1.045898 0.272461,2.012695 0.272461,0.966797 0.764649,1.810547 0.492187,0.84375 1.177734,1.529297 0.694336,0.694336 1.538086,1.186523 0.84375,0.492188 1.810547,0.764649 0.966797,0.27246 2.012695,0.27246 z m 1.265625,-5.05371 q 0.19336,0 0.28125,-0.166993 l 0.975586,-1.722656 h 1.265625 q 0,0.834961 -0.28125,1.652344 -0.28125,0.817383 -0.791015,1.511719 -0.500977,0.685546 -1.195313,1.186523 -0.694336,0.500977 -1.520508,0.703125 l -0.984375,-1.722656 q -0.105468,-0.175781 -0.28125,-0.175781 -0.175781,0 -0.28125,0.175781 l -0.984375,1.722656 Q 32.746204,17.170543 32.051868,16.669566 31.357533,16.168589 30.847767,15.483043 30.34679,14.788707 30.06554,13.971324 29.78429,13.153941 29.78429,12.31898 h 1.265625 l 0.984375,1.713867 q 0.05273,0.09668 0.105469,0.140625 0.05273,0.03516 0.175781,0.03516 0.19336,0 0.28125,-0.166993 l 0.975586,-1.722656 h 2.53125 l 0.984375,1.713867 q 0.05273,0.09668 0.105469,0.140625 0.05273,0.03516 0.175781,0.03516 z M 27.885853,1.5787457 v 0.079102 q 0,0.7207031 0.298828,1.3886719 0.298828,0.6679687 0.799805,1.1865234 0.500976,0.5097656 1.160156,0.8261719 0.65918,0.3076172 1.388672,0.3076172 h 3.9375 V 5.2525739 q 0,-0.4658204 -0.140625,-0.9140625 Q 35.198353,3.8814801 34.952259,3.4771832 34.714954,3.0640973 34.38097,2.7213239 34.046986,2.3697614 33.642689,2.1236676 33.247181,1.8687848 32.79015,1.7281598 32.341908,1.5787457 31.876087,1.5787457 Z m 2.293945,8.2089844 q -0.166992,0 -0.28125,-0.1054687 -0.114258,-0.1142579 -0.114258,-0.28125 0,-0.052734 0.0791,-0.2373047 0.0791,-0.1845703 0.193359,-0.4394532 0.123047,-0.2636718 0.263672,-0.5537109 0.149414,-0.2988281 0.28125,-0.5625 0.140625,-0.2724609 0.246094,-0.4746094 0.114258,-0.2021484 0.158203,-0.28125 0.07031,-0.1142578 0.140625,-0.1669922 0.0791,-0.052734 0.219727,-0.052734 0.131836,0 0.202148,0.061523 0.07031,0.052734 0.140625,0.1582031 0.04394,0.070312 0.149414,0.28125 0.114258,0.2021485 0.246094,0.4658203 0.140625,0.2636719 0.290039,0.5625 0.149414,0.2988282 0.272461,0.5625 0.123047,0.2548829 0.202148,0.4482422 0.0791,0.1845703 0.0791,0.2285157 0,0.1669921 -0.123047,0.28125 -0.114258,0.1054687 -0.28125,0.1054687 z m 8.129883,-3.1552734 q 0.131836,0 0.202148,0.061523 0.0791,0.052734 0.149414,0.1582031 0.04395,0.070312 0.149415,0.28125 0.114257,0.2021485 0.246093,0.4658203 0.140625,0.2636719 0.28125,0.5625 0.149414,0.2988282 0.272461,0.5625 0.123047,0.2548829 0.202149,0.4482422 0.0791,0.1845703 0.0791,0.2285157 0,0.1669921 -0.114258,0.28125 -0.114257,0.1054687 -0.28125,0.1054687 h -2.373046 q -0.166993,0 -0.28125,-0.1054687 -0.114258,-0.1142579 -0.114258,-0.28125 0,-0.043945 0.0791,-0.2285157 0.0791,-0.1933593 0.202149,-0.4482422 0.123047,-0.2636718 0.263672,-0.5625 0.149414,-0.2988281 0.28125,-0.5625 0.140625,-0.2636718 0.246093,-0.4658203 0.114258,-0.2109375 0.158203,-0.28125 0.07031,-0.1054687 0.140625,-0.1582031 0.0791,-0.061523 0.210938,-0.061523 z M 36.094837,5.1998395 q 0.263672,-0.1669922 0.448242,-0.4570313 0.19336,-0.290039 0.19336,-0.6152343 V 1.5787457 h -2.53125 v 0.1582032 q 0.421875,0.3076171 0.764648,0.6943359 0.342774,0.3779297 0.588867,0.8173828 0.246094,0.4394531 0.37793,0.9316406 0.140625,0.4921875 0.158203,1.0195313 z m -2.206054,6.4863285 q -0.123047,0 -0.219727,-0.08789 -0.09668,-0.09668 -0.09668,-0.219727 0,-0.04395 0.06152,-0.193359 0.06152,-0.158203 0.158203,-0.360352 0.09668,-0.202148 0.210937,-0.430664 0.123047,-0.237304 0.228516,-0.4482418 0.105469,-0.2109375 0.193359,-0.3779297 0.08789,-0.1669921 0.131836,-0.2373046 0.05273,-0.087891 0.114258,-0.131836 0.06152,-0.043945 0.166992,-0.043945 0.09668,0 0.166992,0.052734 0.07031,0.052734 0.114258,0.1318359 0.03516,0.061523 0.123047,0.2285156 0.08789,0.1582032 0.19336,0.3691407 0.114257,0.2109378 0.228515,0.4482418 0.123047,0.237305 0.219727,0.448243 0.09668,0.202148 0.158203,0.351562 0.06152,0.149414 0.06152,0.193359 0,0.123047 -0.09668,0.219727 -0.09668,0.08789 -0.219727,0.08789 z"
         id="path1" /><path
         d="m 54.197424,16.739879 -2.07,-14.5800005 h 2.232 l 1.206,9.4500005 1.512,-9.4140005 h 1.818 l 1.548,9.4140005 1.188,-9.4500005 h 2.196 l -2.034,14.5800005 h -2.16 l -1.62,-9.7740005 -1.602,9.7740005 z m 11.195998,0 V 6.3358785 h 2.448 V 16.739879 Z m 0,-12.0600005 v -2.034 h 2.448 v 2.034 z m 7.415985,12.1860005 q -0.99,0 -1.566,-0.324 -0.558,-0.324 -0.792,-0.936 -0.234,-0.612 -0.234,-1.458 V 7.9558785 h -1.044 v -1.62 h 1.044 v -3.114 h 2.466 v 3.114 h 1.584 v 1.62 h -1.584 v 5.9760005 q 0,0.54 0.234,0.774 0.234,0.216 0.702,0.216 0.198,0 0.378,-0.018 0.198,-0.018 0.378,-0.036 v 1.872 q -0.306,0.036 -0.72,0.072 -0.396,0.054 -0.846,0.054 z m 6.047999,0.036 q -1.206,0 -1.944,-0.45 -0.72,-0.468 -1.062,-1.314 -0.324,-0.864 -0.324,-2.034 V 9.9718785 q 0,-1.206 0.324,-2.052 0.342,-0.846 1.08,-1.296 0.738,-0.45 1.926,-0.45 1.116,0 1.818,0.36 0.72,0.342 1.044,1.062 0.324,0.702 0.324,1.782 v 0.8640005 h -2.304 V 9.3238785 q 0,-0.54 -0.09,-0.846 -0.072,-0.324 -0.27,-0.45 -0.198,-0.144 -0.522,-0.144 -0.324,0 -0.522,0.18 -0.198,0.162 -0.288,0.54 -0.072,0.378 -0.072,1.044 v 3.8160005 q 0,1.008 0.216,1.368 0.216,0.342 0.684,0.342 0.36,0 0.54,-0.162 0.198,-0.162 0.252,-0.468 0.072,-0.324 0.072,-0.774 v -1.116 h 2.304 v 0.99 q 0,1.044 -0.342,1.782 -0.324,0.738 -1.044,1.116 -0.702,0.36 -1.8,0.36 z m 4.824009,-0.162 V 2.1598785 h 2.448 v 5.166 q 0.54,-0.54 1.17,-0.846 0.648,-0.306 1.404,-0.306 0.63,0 1.008,0.324 0.378,0.306 0.558,0.828 0.18,0.522 0.18,1.134 v 8.2800005 h -2.448 V 8.9458785 q 0,-0.468 -0.144,-0.72 -0.144,-0.252 -0.558,-0.252 -0.252,0 -0.576,0.144 -0.306,0.144 -0.594,0.378 v 8.2440005 z m 11.718012,0.162 q -1.17,0 -1.908,-0.432 -0.738,-0.45 -1.098,-1.296 -0.342,-0.864 -0.342,-2.07 V 9.9718785 q 0,-1.242 0.342,-2.088 0.36,-0.846 1.098,-1.278 0.756,-0.432 1.908,-0.432 1.242,0 1.926,0.468 0.702,0.468 0.99,1.368 0.306,0.882 0.306,2.1600005 v 1.476 h -4.14 v 2.052 q 0,0.504 0.09,0.828 0.108,0.324 0.324,0.468 0.216,0.144 0.522,0.144 0.324,0 0.522,-0.144 0.198,-0.162 0.288,-0.45 0.09,-0.306 0.09,-0.756 v -0.864 h 2.286 v 0.702 q 0,1.584 -0.792,2.43 -0.792,0.846 -2.412,0.846 z m -0.918,-6.462 h 1.836 V 9.4498785 q 0,-0.54 -0.09,-0.864 -0.09,-0.342 -0.288,-0.486 -0.198,-0.162 -0.558,-0.162 -0.324,0 -0.522,0.162 -0.198,0.162 -0.288,0.54 -0.09,0.378 -0.09,1.08 z m 8.621983,6.462 q -1.314,0 -2.16,-0.702 -0.846,-0.702 -1.205998,-2.052 l 1.817998,-0.702 q 0.216,0.846 0.576,1.296 0.36,0.45 0.936,0.45 0.432,0 0.648,-0.216 0.216,-0.216 0.216,-0.594 0,-0.432 -0.27,-0.774 -0.252,-0.36 -0.882,-0.882 l -1.26,-1.062 q -0.684,-0.594 -1.116,-1.206 -0.413998,-0.6300005 -0.413998,-1.5660005 0,-0.846 0.377998,-1.44 0.396,-0.612 1.062,-0.936 0.684,-0.342 1.512,-0.342 1.296,0 2.07,0.756 0.774,0.738 1.008,1.944 l -1.656,0.684 q -0.09,-0.432 -0.27,-0.792 -0.162,-0.378 -0.432,-0.612 -0.27,-0.234 -0.648,-0.234 -0.378,0 -0.612,0.234 -0.216,0.234 -0.216,0.594 0,0.306 0.252,0.63 0.27,0.324 0.756,0.7380005 l 1.278,1.152 q 0.414,0.36 0.792,0.774 0.378,0.414 0.63,0.936 0.252,0.504 0.252,1.17 0,0.9 -0.414,1.512 -0.396,0.612 -1.098,0.936 -0.684,0.306 -1.53,0.306 z m 8.91,-0.162 V 2.1598785 h 1.854 l 3.546,8.3160005 V 2.1598785 h 2.196 V 16.739879 h -1.764 l -3.564,-8.7120005 v 8.7120005 z m 9.72,0 V 6.3358785 h 2.448 V 16.739879 Z m 0,-12.0600005 v -2.034 h 2.448 v 2.034 z m 7.48799,15.4980005 q -1.062,0 -1.89,-0.234 -0.81,-0.216 -1.278,-0.666 -0.45,-0.45 -0.45,-1.152 0,-0.54 0.234,-0.954 0.252,-0.414 0.666,-0.702 0.432,-0.306 0.918,-0.486 l 1.026,0.162 q -0.216,0.18 -0.414,0.378 -0.18,0.198 -0.306,0.414 -0.126,0.216 -0.126,0.486 0,0.432 0.414,0.648 0.432,0.216 1.476,0.216 0.954,0 1.44,-0.198 0.486,-0.198 0.486,-0.684 0,-0.288 -0.126,-0.468 -0.126,-0.162 -0.432,-0.27 -0.288,-0.108 -0.828,-0.162 l -2.448,-0.306 q -0.756,-0.108 -1.188,-0.522 -0.414,-0.432 -0.414,-1.008 0,-0.648 0.378,-1.134 0.396,-0.504 1.026,-1.044 l 0.828,0.54 q -0.162,0.18 -0.306,0.414 -0.144,0.216 -0.144,0.468 0,0.198 0.216,0.324 0.216,0.126 0.72,0.18 l 2.124,0.252 q 1.278,0.126 1.872,0.81 0.612,0.666 0.612,1.818 0,0.954 -0.432,1.584 -0.414,0.648 -1.314,0.972 -0.9,0.324 -2.34,0.324 z m 0.126,-6.732 q -1.152,0 -1.908,-0.45 -0.738,-0.45 -1.116,-1.26 -0.378,-0.81 -0.378,-1.9080005 0,-1.188 0.396,-1.998 0.396,-0.828 1.152,-1.242 0.756,-0.414 1.854,-0.414 1.098,0 1.818,0.468 0.72,0.468 1.08,1.296 0.378,0.828 0.378,1.908 0,1.0980005 -0.36,1.9080005 -0.342,0.81 -1.062,1.26 -0.702,0.432 -1.854,0.432 z m 0,-1.566 q 0.324,0 0.504,-0.126 0.198,-0.126 0.288,-0.378 0.108,-0.252 0.144,-0.63 0.054,-0.396 0.054,-0.9180005 0,-0.54 -0.036,-0.918 -0.036,-0.396 -0.144,-0.648 -0.108,-0.27 -0.306,-0.396 -0.18,-0.126 -0.486,-0.126 -0.324,0 -0.522,0.126 -0.198,0.126 -0.324,0.378 -0.108,0.252 -0.144,0.648 -0.036,0.396 -0.036,0.936 0,0.4860005 0.036,0.8820005 0.036,0.378 0.144,0.648 0.108,0.252 0.306,0.396 0.198,0.126 0.522,0.126 z m 2.772,-3.8520005 -0.54,-0.756 q 0.216,-0.396 0.666,-0.738 0.45,-0.342 1.08,-0.63 l 0.612,1.332 q -0.216,0.054 -0.612,0.198 -0.378,0.144 -0.738,0.324 -0.342,0.162 -0.468,0.27 z m 2.538,8.7120005 V 2.1598785 h 2.448 v 5.166 q 0.54,-0.54 1.17,-0.846 0.648,-0.306 1.404,-0.306 0.63,0 1.008,0.324 0.378,0.306 0.558,0.828 0.18,0.522 0.18,1.134 v 8.2800005 h -2.448 V 8.9458785 q 0,-0.468 -0.144,-0.72 -0.144,-0.252 -0.558,-0.252 -0.252,0 -0.576,0.144 -0.306,0.144 -0.594,0.378 v 8.2440005 z m 11.592,0.126 q -0.99,0 -1.566,-0.324 -0.558,-0.324 -0.792,-0.936 -0.234,-0.612 -0.234,-1.458 V 7.9558785 h -1.044 v -1.62 h 1.044 v -3.114 h 2.466 v 3.114 h 1.584 v 1.62 h -1.584 v 5.9760005 q 0,0.54 0.234,0.774 0.234,0.216 0.702,0.216 0.198,0 0.378,-0.018 0.198,-0.018 0.378,-0.036 v 1.872 q -0.306,0.036 -0.72,0.072 -0.396,0.054 -0.846,0.054 z"
         id="path2" /><path
         style="fill:#fb5e00"
         d="m 168.11611,3.0553082 q 1.00195,0.2197266 1.90722,0.6591797 0.91407,0.4394531 1.6875,1.0546875 0.77344,0.6152344 1.38868,1.3886719 0.62402,0.7646484 1.05468,1.6523437 0.43946,0.8876954 0.67676,1.8720704 0.23731,0.9755856 0.23731,2.0039066 0,1.221679 -0.31641,2.355468 -0.31641,1.125 -0.89648,2.109375 -0.57129,0.975586 -1.37989,1.78418 -0.80859,0.808594 -1.79297,1.379883 -0.97558,0.580078 -2.10937,0.896484 -1.125,0.316406 -2.34668,0.316406 h -2.53125 q -1.22168,0 -2.35547,-0.316406 -1.125,-0.316406 -2.10937,-0.896484 -0.97559,-0.571289 -1.78418,-1.379883 -0.8086,-0.808594 -1.38868,-1.78418 -0.57128,-0.984375 -0.88769,-2.109375 -0.31641,-1.133789 -0.31641,-2.355468 0,-0.975586 0.21094,-1.916016 0.21973,-0.9492188 0.62402,-1.8105469 0.4043,-0.8701172 0.98438,-1.6347656 0.58887,-0.7734375 1.33594,-1.40625 -0.44825,-0.4921875 -0.70313,-0.975586 -0.24609,-0.4833984 -0.36914,-0.993164 -0.12305,-0.5097656 -0.1582,-1.0546875 -0.0264,-0.553711 -0.0264,-1.18652346 V 0.31312073 h 11.36426 z m -1.88965,16.2070308 q 1.0459,0 2.01269,-0.27246 0.9668,-0.272461 1.81055,-0.764649 0.84375,-0.492187 1.5293,-1.186523 0.69433,-0.685547 1.18652,-1.529297 0.49219,-0.84375 0.76465,-1.810547 0.27246,-0.966797 0.27246,-2.012695 0,-0.922852 -0.21973,-1.7929691 -0.21093,-0.8701172 -0.60644,-1.6523438 -0.39551,-0.7822266 -0.9668,-1.4501953 -0.5625,-0.6767578 -1.26562,-1.1953125 -0.70313,-0.5273438 -1.5293,-0.8789063 -0.81738,-0.3603515 -1.73144,-0.5097656 -0.0176,0.3779297 -0.17579,0.703125 -0.1582,0.3251953 -0.41308,0.5712891 -0.25488,0.2373047 -0.58887,0.3779297 -0.33398,0.140625 -0.71191,0.140625 h -3.78809 q -0.60644,0 -1.19531,-0.1582032 -0.58008,-0.1669921 -1.09863,-0.4833984 -0.79981,0.5273438 -1.43262,1.2216797 -0.62402,0.6943359 -1.06348,1.5117187 -0.43066,0.8173829 -0.66797,1.7314454 -0.22851,0.9140626 -0.22851,1.8632816 0,1.045898 0.27246,2.012695 0.27246,0.966797 0.76465,1.810547 0.49218,0.84375 1.17773,1.529297 0.69434,0.694336 1.53809,1.186523 0.84375,0.492188 1.81054,0.764649 0.9668,0.27246 2.0127,0.27246 z m 1.26562,-5.05371 q 0.19336,0 0.28125,-0.166993 l 0.97559,-1.722656 h 1.26563 q 0,0.834961 -0.28125,1.652344 -0.28125,0.817383 -0.79102,1.511719 -0.50098,0.685546 -1.19531,1.186523 -0.69434,0.500977 -1.52051,0.703125 l -0.98438,-1.722656 q -0.10546,-0.175781 -0.28125,-0.175781 -0.17578,0 -0.28125,0.175781 l -0.98437,1.722656 q -0.82617,-0.202148 -1.52051,-0.703125 -0.69433,-0.500977 -1.2041,-1.186523 -0.50098,-0.694336 -0.78223,-1.511719 -0.28125,-0.817383 -0.28125,-1.652344 h 1.26563 l 0.98437,1.713867 q 0.0527,0.09668 0.10547,0.140625 0.0527,0.03516 0.17578,0.03516 0.19336,0 0.28125,-0.166993 l 0.97559,-1.722656 h 2.53125 l 0.98437,1.713867 q 0.0527,0.09668 0.10547,0.140625 0.0527,0.03516 0.17578,0.03516 z M 158.00869,1.5787457 v 0.079102 q 0,0.7207031 0.29882,1.3886719 0.29883,0.6679687 0.79981,1.1865234 0.50098,0.5097656 1.16016,0.8261719 0.65917,0.3076172 1.38867,0.3076172 h 3.9375 V 5.2525739 q 0,-0.4658204 -0.14063,-0.9140625 -0.13183,-0.4570313 -0.37793,-0.8613282 -0.2373,-0.4130859 -0.57129,-0.7558593 -0.33398,-0.3515625 -0.73828,-0.5976563 -0.39551,-0.2548828 -0.85254,-0.3955078 -0.44824,-0.1494141 -0.91406,-0.1494141 z m 2.29394,8.2089844 q -0.16699,0 -0.28125,-0.1054687 -0.11426,-0.1142579 -0.11426,-0.28125 0,-0.052734 0.0791,-0.2373047 0.0791,-0.1845703 0.19335,-0.4394532 0.12305,-0.2636718 0.26368,-0.5537109 0.14941,-0.2988281 0.28125,-0.5625 0.14062,-0.2724609 0.24609,-0.4746094 0.11426,-0.2021484 0.1582,-0.28125 0.0703,-0.1142578 0.14063,-0.1669922 0.0791,-0.052734 0.21972,-0.052734 0.13184,0 0.20215,0.061523 0.0703,0.052734 0.14063,0.1582031 0.0439,0.070312 0.14941,0.28125 0.11426,0.2021485 0.2461,0.4658203 0.14062,0.2636719 0.29004,0.5625 0.14941,0.2988282 0.27246,0.5625 0.12304,0.2548829 0.20214,0.4482422 0.0791,0.1845703 0.0791,0.2285157 0,0.1669921 -0.12305,0.28125 -0.11426,0.1054687 -0.28125,0.1054687 z m 8.12988,-3.1552734 q 0.13184,0 0.20215,0.061523 0.0791,0.052734 0.14942,0.1582031 0.0439,0.070312 0.14941,0.28125 0.11426,0.2021485 0.24609,0.4658203 0.14063,0.2636719 0.28125,0.5625 0.14942,0.2988282 0.27247,0.5625 0.12304,0.2548829 0.20214,0.4482422 0.0791,0.1845703 0.0791,0.2285157 0,0.1669921 -0.11426,0.28125 -0.11426,0.1054687 -0.28125,0.1054687 h -2.37305 q -0.16699,0 -0.28125,-0.1054687 -0.11426,-0.1142579 -0.11426,-0.28125 0,-0.043945 0.0791,-0.2285157 0.0791,-0.1933593 0.20215,-0.4482422 0.12305,-0.2636718 0.26367,-0.5625 0.14942,-0.2988281 0.28125,-0.5625 0.14063,-0.2636718 0.2461,-0.4658203 0.11426,-0.2109375 0.1582,-0.28125 0.0703,-0.1054687 0.14063,-0.1582031 0.0791,-0.061523 0.21093,-0.061523 z m -2.21484,-1.4326172 q 0.26367,-0.1669922 0.44824,-0.4570313 0.19336,-0.290039 0.19336,-0.6152343 V 1.5787457 h -2.53125 v 0.1582032 q 0.42188,0.3076171 0.76465,0.6943359 0.34277,0.3779297 0.58887,0.8173828 0.24609,0.4394531 0.37793,0.9316406 0.14062,0.4921875 0.1582,1.0195313 z m -2.20605,6.4863285 q -0.12305,0 -0.21973,-0.08789 -0.0967,-0.09668 -0.0967,-0.219727 0,-0.04395 0.0615,-0.193359 0.0615,-0.158203 0.15821,-0.360352 0.0967,-0.202148 0.21093,-0.430664 0.12305,-0.237304 0.22852,-0.4482418 0.10547,-0.2109375 0.19336,-0.3779297 0.0879,-0.1669921 0.13183,-0.2373046 0.0527,-0.087891 0.11426,-0.131836 0.0615,-0.043945 0.16699,-0.043945 0.0967,0 0.167,0.052734 0.0703,0.052734 0.11425,0.1318359 0.0352,0.061523 0.12305,0.2285156 0.0879,0.1582032 0.19336,0.3691407 0.11426,0.2109378 0.22852,0.4482418 0.12304,0.237305 0.21972,0.448243 0.0967,0.202148 0.15821,0.351562 0.0615,0.149414 0.0615,0.193359 0,0.123047 -0.0967,0.219727 -0.0967,0.08789 -0.21973,0.08789 z"
         id="path3" /></g></g></svg>
