<?xml version="1.0" encoding="UTF-8" standalone="no"?>
<!-- Created with Inkscape (http://www.inkscape.org/) -->

<svg
   width="200"
   height="24"
   viewBox="0 0 52.916665 6.3499999"
   version="1.1"
   id="svg1"
   xml:space="preserve"
   inkscape:version="1.3 (0e150ed6c4, 2023-07-21)"
   sodipodi:docname="Witches Title.svg"
   xmlns:inkscape="http://www.inkscape.org/namespaces/inkscape"
   xmlns:sodipodi="http://sodipodi.sourceforge.net/DTD/sodipodi-0.dtd"
   xmlns="http://www.w3.org/2000/svg"
   xmlns:svg="http://www.w3.org/2000/svg"><sodipodi:namedview
     id="namedview1"
     pagecolor="#505050"
     bordercolor="#eeeeee"
     borderopacity="1"
     inkscape:showpageshadow="0"
     inkscape:pageopacity="0"
     inkscape:pagecheckerboard="0"
     inkscape:deskcolor="#505050"
     inkscape:document-units="mm"
     inkscape:zoom="3.0680976"
     inkscape:cx="71.21677"
     inkscape:cy="-0.81483718"
     inkscape:window-width="1920"
     inkscape:window-height="1057"
     inkscape:window-x="-8"
     inkscape:window-y="-8"
     inkscape:window-maximized="1"
     inkscape:current-layer="layer1" /><defs
     id="defs1"><rect
       x="0"
       y="0"
       width="199.79807"
       height="22.163569"
       id="rect1" /></defs><g
     inkscape:label="Layer 1"
     inkscape:groupmode="layer"
     id="layer1"><g
       id="text1"
       style="font-size:18px;font-family:Oswald;-inkscape-font-specification:'Oswald, @wght=500';font-variation-settings:'wght' 500;text-align:center;white-space:pre;fill:#7a7173;stroke-width:27.2995"
       transform="matrix(0.26458333,0,0,0.26458333,0,0.48782976)"
       aria-label="🎃 Witches Night 🎃"><path
         style="fill:#000000;fill-opacity:1"
         d="m 37.993275,3.0553082 q 1.001953,0.2197266 1.907226,0.6591797 0.914063,0.4394531 1.6875,1.0546875 0.773438,0.6152344 1.388672,1.3886719 0.624024,0.7646484 1.054688,1.6523437 0.439453,0.8876954 0.676757,1.8720704 0.237305,0.9755856 0.237305,2.0039066 0,1.221679 -0.316406,2.355468 -0.316406,1.125 -0.896484,2.109375 -0.57129,0.975586 -1.379883,1.78418 -0.808594,0.808594 -1.792969,1.379883 -0.975586,0.580078 -2.109375,0.896484 -1.125,0.316406 -2.34668,0.316406 h -2.53125 q -1.221679,0 -2.355468,-0.316406 -1.125,-0.316406 -2.109375,-0.896484 -0.975586,-0.571289 -1.78418,-1.379883 -0.808594,-0.808594 -1.388672,-1.78418 -0.571289,-0.984375 -0.887695,-2.109375 -0.316407,-1.133789 -0.316407,-2.355468 0,-0.975586 0.210938,-1.916016 Q 25.161243,8.8209332 25.56554,7.9596051 25.969837,7.0894879 26.549915,6.3248395 27.138783,5.551402 27.885853,4.9185895 27.437611,4.426402 27.182728,3.9430035 26.936634,3.4596051 26.813587,2.9498395 26.69054,2.4400739 26.655384,1.895152 26.629017,1.341441 26.629017,0.70862854 V 0.31312073 H 37.993275 Z M 36.103626,19.262339 q 1.045899,0 2.012696,-0.27246 0.966796,-0.272461 1.810546,-0.764649 0.84375,-0.492187 1.529297,-1.186523 0.694336,-0.685547 1.186524,-1.529297 0.492187,-0.84375 0.764648,-1.810547 0.272461,-0.966797 0.272461,-2.012695 0,-0.922852 -0.219726,-1.7929691 Q 43.249134,9.0230817 42.853626,8.2408551 42.458118,7.4586285 41.886829,6.7906598 41.324329,6.113902 40.621204,5.5953473 39.918079,5.0680035 39.091908,4.716441 38.274525,4.3560895 37.360462,4.2066754 q -0.01758,0.3779297 -0.175781,0.703125 -0.158203,0.3251953 -0.413086,0.5712891 -0.254883,0.2373047 -0.588867,0.3779297 -0.333985,0.140625 -0.711914,0.140625 h -3.788086 q -0.606445,0 -1.195313,-0.1582032 -0.580078,-0.1669921 -1.098632,-0.4833984 -0.799805,0.5273438 -1.432618,1.2216797 -0.624023,0.6943359 -1.063476,1.5117187 -0.430664,0.8173829 -0.667969,1.7314454 -0.228516,0.9140626 -0.228516,1.8632816 0,1.045898 0.272461,2.012695 0.272461,0.966797 0.764649,1.810547 0.492187,0.84375 1.177734,1.529297 0.694336,0.694336 1.538086,1.186523 0.84375,0.492188 1.810547,0.764649 0.966797,0.27246 2.012695,0.27246 z m 1.265625,-5.05371 q 0.19336,0 0.28125,-0.166993 l 0.975586,-1.722656 h 1.265625 q 0,0.834961 -0.28125,1.652344 -0.28125,0.817383 -0.791015,1.511719 -0.500977,0.685546 -1.195313,1.186523 -0.694336,0.500977 -1.520508,0.703125 l -0.984375,-1.722656 q -0.105468,-0.175781 -0.28125,-0.175781 -0.175781,0 -0.28125,0.175781 l -0.984375,1.722656 Q 32.746204,17.170543 32.051868,16.669566 31.357533,16.168589 30.847767,15.483043 30.34679,14.788707 30.06554,13.971324 29.78429,13.153941 29.78429,12.31898 h 1.265625 l 0.984375,1.713867 q 0.05273,0.09668 0.105469,0.140625 0.05273,0.03516 0.175781,0.03516 0.19336,0 0.28125,-0.166993 l 0.975586,-1.722656 h 2.53125 l 0.984375,1.713867 q 0.05273,0.09668 0.105469,0.140625 0.05273,0.03516 0.175781,0.03516 z M 27.885853,1.5787457 v 0.079102 q 0,0.7207031 0.298828,1.3886719 0.298828,0.6679687 0.799805,1.1865234 0.500976,0.5097656 1.160156,0.8261719 0.65918,0.3076172 1.388672,0.3076172 h 3.9375 V 5.2525739 q 0,-0.4658204 -0.140625,-0.9140625 Q 35.198353,3.8814801 34.952259,3.4771832 34.714954,3.0640973 34.38097,2.7213239 34.046986,2.3697614 33.642689,2.1236676 33.247181,1.8687848 32.79015,1.7281598 32.341908,1.5787457 31.876087,1.5787457 Z m 2.293945,8.2089844 q -0.166992,0 -0.28125,-0.1054687 -0.114258,-0.1142579 -0.114258,-0.28125 0,-0.052734 0.0791,-0.2373047 0.0791,-0.1845703 0.193359,-0.4394532 0.123047,-0.2636718 0.263672,-0.5537109 0.149414,-0.2988281 0.28125,-0.5625 0.140625,-0.2724609 0.246094,-0.4746094 0.114258,-0.2021484 0.158203,-0.28125 0.07031,-0.1142578 0.140625,-0.1669922 0.0791,-0.052734 0.219727,-0.052734 0.131836,0 0.202148,0.061523 0.07031,0.052734 0.140625,0.1582031 0.04394,0.070312 0.149414,0.28125 0.114258,0.2021485 0.246094,0.4658203 0.140625,0.2636719 0.290039,0.5625 0.149414,0.2988282 0.272461,0.5625 0.123047,0.2548829 0.202148,0.4482422 0.0791,0.1845703 0.0791,0.2285157 0,0.1669921 -0.123047,0.28125 -0.114258,0.1054687 -0.28125,0.1054687 z m 8.129883,-3.1552734 q 0.131836,0 0.202148,0.061523 0.0791,0.052734 0.149414,0.1582031 0.04395,0.070312 0.149415,0.28125 0.114257,0.2021485 0.246093,0.4658203 0.140625,0.2636719 0.28125,0.5625 0.149414,0.2988282 0.272461,0.5625 0.123047,0.2548829 0.202149,0.4482422 0.0791,0.1845703 0.0791,0.2285157 0,0.1669921 -0.114258,0.28125 -0.114257,0.1054687 -0.28125,0.1054687 h -2.373046 q -0.166993,0 -0.28125,-0.1054687 -0.114258,-0.1142579 -0.114258,-0.28125 0,-0.043945 0.0791,-0.2285157 0.0791,-0.1933593 0.202149,-0.4482422 0.123047,-0.2636718 0.263672,-0.5625 0.149414,-0.2988281 0.28125,-0.5625 0.140625,-0.2636718 0.246093,-0.4658203 0.114258,-0.2109375 0.158203,-0.28125 0.07031,-0.1054687 0.140625,-0.1582031 0.0791,-0.061523 0.210938,-0.061523 z M 36.094837,5.1998395 q 0.263672,-0.1669922 0.448242,-0.4570313 0.19336,-0.290039 0.19336,-0.6152343 V 1.5787457 h -2.53125 v 0.1582032 q 0.421875,0.3076171 0.764648,0.6943359 0.342774,0.3779297 0.588867,0.8173828 0.246094,0.4394531 0.37793,0.9316406 0.140625,0.4921875 0.158203,1.0195313 z m -2.206054,6.4863285 q -0.123047,0 -0.219727,-0.08789 -0.09668,-0.09668 -0.09668,-0.219727 0,-0.04395 0.06152,-0.193359 0.06152,-0.158203 0.158203,-0.360352 0.09668,-0.202148 0.210937,-0.430664 0.123047,-0.237304 0.228516,-0.4482418 0.105469,-0.2109375 0.193359,-0.3779297 0.08789,-0.1669921 0.131836,-0.2373046 0.05273,-0.087891 0.114258,-0.131836 0.06152,-0.043945 0.166992,-0.043945 0.09668,0 0.166992,0.052734 0.07031,0.052734 0.114258,0.1318359 0.03516,0.061523 0.123047,0.2285156 0.08789,0.1582032 0.19336,0.3691407 0.114257,0.2109378 0.228515,0.4482418 0.123047,0.237305 0.219727,0.448243 0.09668,0.202148 0.158203,0.351562 0.06152,0.149414 0.06152,0.193359 0,0.123047 -0.09668,0.219727 -0.09668,0.08789 -0.219727,0.08789 z"
         id="path1" /><path
         d="m 54.197424,16.739879 -2.07,-14.5800005 h 2.232 l 1.206,9.4500005 1.512,-9.4140005 h 1.818 l 1.548,9.4140005 1.188,-9.4500005 h 2.196 l -2.034,14.5800005 h -2.16 l -1.62,-9.7740005 -1.602,9.7740005 z m 11.195998,0 V 6.3358785 h 2.448 V 16.739879 Z m 0,-12.0600005 v -2.034 h 2.448 v 2.034 z m 7.415985,12.1860005 q -0.99,0 -1.566,-0.324 -0.558,-0.324 -0.792,-0.936 -0.234,-0.612 -0.234,-1.458 V 7.9558785 h -1.044 v -1.62 h 1.044 v -3.114 h 2.466 v 3.114 h 1.584 v 1.62 h -1.584 v 5.9760005 q 0,0.54 0.234,0.774 0.234,0.216 0.702,0.216 0.198,0 0.378,-0.018 0.198,-0.018 0.378,-0.036 v 1.872 q -0.306,0.036 -0.72,0.072 -0.396,0.054 -0.846,0.054 z m 6.047999,0.036 q -1.206,0 -1.944,-0.45 -0.72,-0.468 -1.062,-1.314 -0.324,-0.864 -0.324,-2.034 V 9.9718785 q 0,-1.206 0.324,-2.052 0.342,-0.846 1.08,-1.296 0.738,-0.45 1.926,-0.45 1.116,0 1.818,0.36 0.72,0.342 1.044,1.062 0.324,0.702 0.324,1.782 v 0.8640005 h -2.304 V 9.3238785 q 0,-0.54 -0.09,-0.846 -0.072,-0.324 -0.27,-0.45 -0.198,-0.144 -0.522,-0.144 -0.324,0 -0.522,0.18 -0.198,0.162 -0.288,0.54 -0.072,0.378 -0.072,1.044 v 3.8160005 q 0,1.008 0.216,1.368 0.216,0.342 0.684,0.342 0.36,0 0.54,-0.162 0.198,-0.162 0.252,-0.468 0.072,-0.324 0.072,-0.774 v -1.116 h 2.304 v 0.99 q 0,1.044 -0.342,1.782 -0.324,0.738 -1.044,1.116 -0.702,0.36 -1.8,0.36 z m 4.824009,-0.162 V 2.1598785 h 2.448 v 5.166 q 0.54,-0.54 1.17,-0.846 0.648,-0.306 1.404,-0.306 0.63,0 1.008,0.324 0.378,0.306 0.558,0.828 0.18,0.522 0.18,1.134 v 8.2800005 h -2.448 V 8.9458785 q 0,-0.468 -0.144,-0.72 -0.144,-0.252 -0.558,-0.252 -0.252,0 -0.576,0.144 -0.306,0.144 -0.594,0.378 v 8.2440005 z m 11.718012,0.162 q -1.17,0 -1.908,-0.432 -0.738,-0.45 -1.098,-1.296 -0.342,-0.864 -0.342,-2.07 V 9.9718785 q 0,-1.242 0.342,-2.088 0.36,-0.846 1.098,-1.278 0.756,-0.432 1.908,-0.432 1.242,0 1.926,0.468 0.702,0.468 0.99,1.368 0.306,0.882 0.306,2.1600005 v 1.476 h -4.14 v 2.052 q 0,0.504 0.09,0.828 0.108,0.324 0.324,0.468 0.216,0.144 0.522,0.144 0.324,0 0.522,-0.144 0.198,-0.162 0.288,-0.45 0.09,-0.306 0.09,-0.756 v -0.864 h 2.286 v 0.702 q 0,1.584 -0.792,2.43 -0.792,0.846 -2.412,0.846 z m -0.918,-6.462 h 1.836 V 9.4498785 q 0,-0.54 -0.09,-0.864 -0.09,-0.342 -0.288,-0.486 -0.198,-0.162 -0.558,-0.162 -0.324,0 -0.522,0.162 -0.198,0.162 -0.288,0.54 -0.09,0.378 -0.09,1.08 z m 8.621983,6.462 q -1.314,0 -2.16,-0.702 -0.846,-0.702 -1.205998,-2.052 l 1.817998,-0.702 q 0.216,0.846 0.576,1.296 0.36,0.45 0.936,0.45 0.432,0 0.648,-0.216 0.216,-0.216 0.216,-0.594 0,-0.432 -0.27,-0.774 -0.252,-0.36 -0.882,-0.882 l -1.26,-1.062 q -0.684,-0.594 -1.116,-1.206 -0.413998,-0.6300005 -0.413998,-1.5660005 0,-0.846 0.377998,-1.44 0.396,-0.612 1.062,-0.936 0.684,-0.342 1.512,-0.342 1.296,0 2.07,0.756 0.774,0.738 1.008,1.944 l -1.656,0.684 q -0.09,-0.432 -0.27,-0.792 -0.162,-0.378 -0.432,-0.612 -0.27,-0.234 -0.648,-0.234 -0.378,0 -0.612,0.234 -0.216,0.234 -0.216,0.594 0,0.306 0.252,0.63 0.27,0.324 0.756,0.7380005 l 1.278,1.152 q 0.414,0.36 0.792,0.774 0.378,0.414 0.63,0.936 0.252,0.504 0.252,1.17 0,0.9 -0.414,1.512 -0.396,0.612 -1.098,0.936 -0.684,0.306 -1.53,0.306 z m 8.91,-0.162 V 2.1598785 h 1.854 l 3.546,8.3160005 V 2.1598785 h 2.196 V 16.739879 h -1.764 l -3.564,-8.7120005 v 8.7120005 z m 9.72,0 V 6.3358785 h 2.448 V 16.739879 Z m 0,-12.0600005 v -2.034 h 2.448 v 2.034 z m 7.48799,15.4980005 q -1.062,0 -1.89,-0.234 -0.81,-0.216 -1.278,-0.666 -0.45,-0.45 -0.45,-1.152 0,-0.54 0.234,-0.954 0.252,-0.414 0.666,-0.702 0.432,-0.306 0.918,-0.486 l 1.026,0.162 q -0.216,0.18 -0.414,0.378 -0.18,0.198 -0.306,0.414 -0.126,0.216 -0.126,0.486 0,0.432 0.414,0.648 0.432,0.216 1.476,0.216 0.954,0 1.44,-0.198 0.486,-0.198 0.486,-0.684 0,-0.288 -0.126,-0.468 -0.126,-0.162 -0.432,-0.27 -0.288,-0.108 -0.828,-0.162 l -2.448,-0.306 q -0.756,-0.108 -1.188,-0.522 -0.414,-0.432 -0.414,-1.008 0,-0.648 0.378,-1.134 0.396,-0.504 1.026,-1.044 l 0.828,0.54 q -0.162,0.18 -0.306,0.414 -0.144,0.216 -0.144,0.468 0,0.198 0.216,0.324 0.216,0.126 0.72,0.18 l 2.124,0.252 q 1.278,0.126 1.872,0.81 0.612,0.666 0.612,1.818 0,0.954 -0.432,1.584 -0.414,0.648 -1.314,0.972 -0.9,0.324 -2.34,0.324 z m 0.126,-6.732 q -1.152,0 -1.908,-0.45 -0.738,-0.45 -1.116,-1.26 -0.378,-0.81 -0.378,-1.9080005 0,-1.188 0.396,-1.998 0.396,-0.828 1.152,-1.242 0.756,-0.414 1.854,-0.414 1.098,0 1.818,0.468 0.72,0.468 1.08,1.296 0.378,0.828 0.378,1.908 0,1.0980005 -0.36,1.9080005 -0.342,0.81 -1.062,1.26 -0.702,0.432 -1.854,0.432 z m 0,-1.566 q 0.324,0 0.504,-0.126 0.198,-0.126 0.288,-0.378 0.108,-0.252 0.144,-0.63 0.054,-0.396 0.054,-0.9180005 0,-0.54 -0.036,-0.918 -0.036,-0.396 -0.144,-0.648 -0.108,-0.27 -0.306,-0.396 -0.18,-0.126 -0.486,-0.126 -0.324,0 -0.522,0.126 -0.198,0.126 -0.324,0.378 -0.108,0.252 -0.144,0.648 -0.036,0.396 -0.036,0.936 0,0.4860005 0.036,0.8820005 0.036,0.378 0.144,0.648 0.108,0.252 0.306,0.396 0.198,0.126 0.522,0.126 z m 2.772,-3.8520005 -0.54,-0.756 q 0.216,-0.396 0.666,-0.738 0.45,-0.342 1.08,-0.63 l 0.612,1.332 q -0.216,0.054 -0.612,0.198 -0.378,0.144 -0.738,0.324 -0.342,0.162 -0.468,0.27 z m 2.538,8.7120005 V 2.1598785 h 2.448 v 5.166 q 0.54,-0.54 1.17,-0.846 0.648,-0.306 1.404,-0.306 0.63,0 1.008,0.324 0.378,0.306 0.558,0.828 0.18,0.522 0.18,1.134 v 8.2800005 h -2.448 V 8.9458785 q 0,-0.468 -0.144,-0.72 -0.144,-0.252 -0.558,-0.252 -0.252,0 -0.576,0.144 -0.306,0.144 -0.594,0.378 v 8.2440005 z m 11.592,0.126 q -0.99,0 -1.566,-0.324 -0.558,-0.324 -0.792,-0.936 -0.234,-0.612 -0.234,-1.458 V 7.9558785 h -1.044 v -1.62 h 1.044 v -3.114 h 2.466 v 3.114 h 1.584 v 1.62 h -1.584 v 5.9760005 q 0,0.54 0.234,0.774 0.234,0.216 0.702,0.216 0.198,0 0.378,-0.018 0.198,-0.018 0.378,-0.036 v 1.872 q -0.306,0.036 -0.72,0.072 -0.396,0.054 -0.846,0.054 z"
         id="path2" /><path
         style="fill:#000000;fill-opacity:1"
         d="m 168.11611,3.0553082 q 1.00195,0.2197266 1.90722,0.6591797 0.91407,0.4394531 1.6875,1.0546875 0.77344,0.6152344 1.38868,1.3886719 0.62402,0.7646484 1.05468,1.6523437 0.43946,0.8876954 0.67676,1.8720704 0.23731,0.9755856 0.23731,2.0039066 0,1.221679 -0.31641,2.355468 -0.31641,1.125 -0.89648,2.109375 -0.57129,0.975586 -1.37989,1.78418 -0.80859,0.808594 -1.79297,1.379883 -0.97558,0.580078 -2.10937,0.896484 -1.125,0.316406 -2.34668,0.316406 h -2.53125 q -1.22168,0 -2.35547,-0.316406 -1.125,-0.316406 -2.10937,-0.896484 -0.97559,-0.571289 -1.78418,-1.379883 -0.8086,-0.808594 -1.38868,-1.78418 -0.57128,-0.984375 -0.88769,-2.109375 -0.31641,-1.133789 -0.31641,-2.355468 0,-0.975586 0.21094,-1.916016 0.21973,-0.9492188 0.62402,-1.8105469 0.4043,-0.8701172 0.98438,-1.6347656 0.58887,-0.7734375 1.33594,-1.40625 -0.44825,-0.4921875 -0.70313,-0.975586 -0.24609,-0.4833984 -0.36914,-0.993164 -0.12305,-0.5097656 -0.1582,-1.0546875 -0.0264,-0.553711 -0.0264,-1.18652346 V 0.31312073 h 11.36426 z m -1.88965,16.2070308 q 1.0459,0 2.01269,-0.27246 0.9668,-0.272461 1.81055,-0.764649 0.84375,-0.492187 1.5293,-1.186523 0.69433,-0.685547 1.18652,-1.529297 0.49219,-0.84375 0.76465,-1.810547 0.27246,-0.966797 0.27246,-2.012695 0,-0.922852 -0.21973,-1.7929691 -0.21093,-0.8701172 -0.60644,-1.6523438 -0.39551,-0.7822266 -0.9668,-1.4501953 -0.5625,-0.6767578 -1.26562,-1.1953125 -0.70313,-0.5273438 -1.5293,-0.8789063 -0.81738,-0.3603515 -1.73144,-0.5097656 -0.0176,0.3779297 -0.17579,0.703125 -0.1582,0.3251953 -0.41308,0.5712891 -0.25488,0.2373047 -0.58887,0.3779297 -0.33398,0.140625 -0.71191,0.140625 h -3.78809 q -0.60644,0 -1.19531,-0.1582032 -0.58008,-0.1669921 -1.09863,-0.4833984 -0.79981,0.5273438 -1.43262,1.2216797 -0.62402,0.6943359 -1.06348,1.5117187 -0.43066,0.8173829 -0.66797,1.7314454 -0.22851,0.9140626 -0.22851,1.8632816 0,1.045898 0.27246,2.012695 0.27246,0.966797 0.76465,1.810547 0.49218,0.84375 1.17773,1.529297 0.69434,0.694336 1.53809,1.186523 0.84375,0.492188 1.81054,0.764649 0.9668,0.27246 2.0127,0.27246 z m 1.26562,-5.05371 q 0.19336,0 0.28125,-0.166993 l 0.97559,-1.722656 h 1.26563 q 0,0.834961 -0.28125,1.652344 -0.28125,0.817383 -0.79102,1.511719 -0.50098,0.685546 -1.19531,1.186523 -0.69434,0.500977 -1.52051,0.703125 l -0.98438,-1.722656 q -0.10546,-0.175781 -0.28125,-0.175781 -0.17578,0 -0.28125,0.175781 l -0.98437,1.722656 q -0.82617,-0.202148 -1.52051,-0.703125 -0.69433,-0.500977 -1.2041,-1.186523 -0.50098,-0.694336 -0.78223,-1.511719 -0.28125,-0.817383 -0.28125,-1.652344 h 1.26563 l 0.98437,1.713867 q 0.0527,0.09668 0.10547,0.140625 0.0527,0.03516 0.17578,0.03516 0.19336,0 0.28125,-0.166993 l 0.97559,-1.722656 h 2.53125 l 0.98437,1.713867 q 0.0527,0.09668 0.10547,0.140625 0.0527,0.03516 0.17578,0.03516 z M 158.00869,1.5787457 v 0.079102 q 0,0.7207031 0.29882,1.3886719 0.29883,0.6679687 0.79981,1.1865234 0.50098,0.5097656 1.16016,0.8261719 0.65917,0.3076172 1.38867,0.3076172 h 3.9375 V 5.2525739 q 0,-0.4658204 -0.14063,-0.9140625 -0.13183,-0.4570313 -0.37793,-0.8613282 -0.2373,-0.4130859 -0.57129,-0.7558593 -0.33398,-0.3515625 -0.73828,-0.5976563 -0.39551,-0.2548828 -0.85254,-0.3955078 -0.44824,-0.1494141 -0.91406,-0.1494141 z m 2.29394,8.2089844 q -0.16699,0 -0.28125,-0.1054687 -0.11426,-0.1142579 -0.11426,-0.28125 0,-0.052734 0.0791,-0.2373047 0.0791,-0.1845703 0.19335,-0.4394532 0.12305,-0.2636718 0.26368,-0.5537109 0.14941,-0.2988281 0.28125,-0.5625 0.14062,-0.2724609 0.24609,-0.4746094 0.11426,-0.2021484 0.1582,-0.28125 0.0703,-0.1142578 0.14063,-0.1669922 0.0791,-0.052734 0.21972,-0.052734 0.13184,0 0.20215,0.061523 0.0703,0.052734 0.14063,0.1582031 0.0439,0.070312 0.14941,0.28125 0.11426,0.2021485 0.2461,0.4658203 0.14062,0.2636719 0.29004,0.5625 0.14941,0.2988282 0.27246,0.5625 0.12304,0.2548829 0.20214,0.4482422 0.0791,0.1845703 0.0791,0.2285157 0,0.1669921 -0.12305,0.28125 -0.11426,0.1054687 -0.28125,0.1054687 z m 8.12988,-3.1552734 q 0.13184,0 0.20215,0.061523 0.0791,0.052734 0.14942,0.1582031 0.0439,0.070312 0.14941,0.28125 0.11426,0.2021485 0.24609,0.4658203 0.14063,0.2636719 0.28125,0.5625 0.14942,0.2988282 0.27247,0.5625 0.12304,0.2548829 0.20214,0.4482422 0.0791,0.1845703 0.0791,0.2285157 0,0.1669921 -0.11426,0.28125 -0.11426,0.1054687 -0.28125,0.1054687 h -2.37305 q -0.16699,0 -0.28125,-0.1054687 -0.11426,-0.1142579 -0.11426,-0.28125 0,-0.043945 0.0791,-0.2285157 0.0791,-0.1933593 0.20215,-0.4482422 0.12305,-0.2636718 0.26367,-0.5625 0.14942,-0.2988281 0.28125,-0.5625 0.14063,-0.2636718 0.2461,-0.4658203 0.11426,-0.2109375 0.1582,-0.28125 0.0703,-0.1054687 0.14063,-0.1582031 0.0791,-0.061523 0.21093,-0.061523 z m -2.21484,-1.4326172 q 0.26367,-0.1669922 0.44824,-0.4570313 0.19336,-0.290039 0.19336,-0.6152343 V 1.5787457 h -2.53125 v 0.1582032 q 0.42188,0.3076171 0.76465,0.6943359 0.34277,0.3779297 0.58887,0.8173828 0.24609,0.4394531 0.37793,0.9316406 0.14062,0.4921875 0.1582,1.0195313 z m -2.20605,6.4863285 q -0.12305,0 -0.21973,-0.08789 -0.0967,-0.09668 -0.0967,-0.219727 0,-0.04395 0.0615,-0.193359 0.0615,-0.158203 0.15821,-0.360352 0.0967,-0.202148 0.21093,-0.430664 0.12305,-0.237304 0.22852,-0.4482418 0.10547,-0.2109375 0.19336,-0.3779297 0.0879,-0.1669921 0.13183,-0.2373046 0.0527,-0.087891 0.11426,-0.131836 0.0615,-0.043945 0.16699,-0.043945 0.0967,0 0.167,0.052734 0.0703,0.052734 0.11425,0.1318359 0.0352,0.061523 0.12305,0.2285156 0.0879,0.1582032 0.19336,0.3691407 0.11426,0.2109378 0.22852,0.4482418 0.12304,0.237305 0.21972,0.448243 0.0967,0.202148 0.15821,0.351562 0.0615,0.149414 0.0615,0.193359 0,0.123047 -0.0967,0.219727 -0.0967,0.08789 -0.21973,0.08789 z"
         id="path3" /></g><path
       style="font-variation-settings:'wght' 500;fill:#e65d00;fill-opacity:1;stroke-width:1.57294"
       d="m 32.269066,20.966284 c -1.724451,-0.311304 -3.43701,-1.313033 -4.499778,-2.63206 -2.16113,-2.682228 -2.322911,-6.25215 -0.411689,-9.0844593 0.353255,-0.5235003 1.143675,-1.3540757 1.648129,-1.7318578 l 0.37128,-0.2780485 0.322935,0.1630171 c 0.177614,0.089659 0.516481,0.2237925 0.753037,0.2980736 0.423873,0.1331008 0.466817,0.1350567 2.96528,0.1350567 h 2.535178 l 0.32585,-0.1527652 c 0.55528,-0.2603263 0.996578,-0.8263732 1.069789,-1.3722027 0.02921,-0.2177441 0.03744,-0.2253591 0.210452,-0.1946216 0.36651,0.065114 1.000637,0.2658038 1.476456,0.4672704 2.302924,0.9750828 3.922529,2.9659927 4.474717,5.5005763 0.146938,0.674457 0.145484,2.243649 -0.0027,2.925145 -0.324173,1.490751 -1.01577,2.764956 -2.080786,3.833655 -1.114398,1.118252 -2.536177,1.857036 -4.097981,2.129392 -0.688623,0.120086 -4.385742,0.115577 -5.060158,-0.0062 z m 1.871242,-2.675861 c 0.518221,-0.906266 0.532632,-0.924719 0.70866,-0.907479 0.165932,0.01625 0.216337,0.08153 0.658724,0.853055 0.263474,0.459501 0.501837,0.873812 0.529697,0.920691 0.0434,0.07302 0.09055,0.07469 0.329058,0.01164 0.153122,-0.04048 0.455201,-0.162956 0.671287,-0.272175 1.543972,-0.780383 2.715887,-2.541993 2.844397,-4.275664 l 0.03524,-0.475346 H 39.25731 38.59725 l -0.50326,0.892336 c -0.509707,0.903767 -0.643978,1.05891 -0.829744,0.958721 -0.05546,-0.02991 -0.333572,-0.458633 -0.618033,-0.952719 l -0.517202,-0.898338 -1.297755,8.38e-4 -1.297756,8.38e-4 -0.482654,0.866888 c -0.476329,0.855526 -0.653205,1.068698 -0.830341,1.000724 -0.04975,-0.01909 -0.327876,-0.44749 -0.61806,-0.951999 L 31.074832,14.145143 H 30.4089 29.742969 l 0.03823,0.458423 c 0.0688,0.824911 0.463899,1.906208 0.959996,2.627261 0.567432,0.824733 1.512661,1.568498 2.417168,1.901976 0.416873,0.153695 0.408028,0.161282 0.981944,-0.84238 z m 1.918673,-4.908196 0.117845,-0.15793 -0.505574,-1.023233 c -0.278065,-0.562778 -0.546251,-1.068606 -0.595969,-1.124063 -0.142583,-0.159042 -0.390997,-0.128074 -0.529168,0.06597 -0.06532,0.09174 -0.313405,0.564241 -0.551291,1.050002 -0.672162,1.372549 -0.663701,1.385554 0.886536,1.362765 l 1.059776,-0.01558 z m -3.214279,-1.85607 c 0.07778,-0.07778 0.141425,-0.183374 0.141425,-0.234644 0,-0.115068 -0.453993,-1.09239 -0.935615,-2.0141189 -0.397434,-0.7606101 -0.545586,-0.9040412 -0.832206,-0.8056913 -0.138967,0.047684 -0.255805,0.241878 -0.81057,1.3472278 -0.357699,0.7127024 -0.648199,1.3628394 -0.648199,1.4506644 0,0.103308 0.05327,0.201054 0.151814,0.27857 0.143553,0.112919 0.22365,0.119417 1.47187,0.119417 h 1.320056 z m 6.978237,-0.0026 c 0.147683,-0.197685 0.05525,-0.489143 -0.527433,-1.6630655 -0.600737,-1.2102997 -0.745097,-1.419481 -0.97961,-1.419481 -0.250054,0 -0.417531,0.2425172 -1.021833,1.4796743 -0.617871,1.2649382 -0.670745,1.4625342 -0.44111,1.6484822 0.117432,0.09509 0.248123,0.102628 1.506244,0.08687 1.299773,-0.01627 1.382522,-0.02376 1.463742,-0.132485 z"
       id="path4"
       transform="scale(0.26458333)" /><path
       style="font-variation-settings:'wght' 500;fill:#42a104;fill-opacity:1;stroke-width:3.14587"
       d="M 30.817322,7.0446423 C 29.355664,6.650537 28.216442,5.424496 27.992393,4.0044294 l -0.07727,-0.4897503 h 2.24129 c 2.654621,0 3.017053,0.086293 3.952253,0.9410135 0.67495,0.6168668 1.157598,1.4679573 1.279799,2.2567682 l 0.07587,0.4897504 -2.060156,-0.00778 C 32.158742,7.1897312 31.135732,7.1304922 30.817322,7.04464 Z"
       id="path5"
       transform="scale(0.26458333)" /><path
       style="font-variation-settings:'wght' 500;fill:#42a104;fill-opacity:1;stroke-width:3.14587"
       d="M 35.96951,6.0497392 C 35.752726,5.2082049 35.060305,4.1074359 34.504894,3.7213805 34.234363,3.53334 34.26706,3.5265636 35.473086,3.5207234 l 1.248179,-0.00604 -0.03821,1.4375654 c -0.03351,1.2607567 -0.06696,1.4662735 -0.271946,1.6709803 L 36.17737,6.8566439 Z"
       id="path6"
       transform="scale(0.26458333)" /><path
       style="font-variation-settings:'wght' 500;fill:#42a104;fill-opacity:1;stroke-width:4.44893"
       d="M 160.29028,6.8065514 C 159.16603,6.2528392 158.1599,4.8859927 158.1599,3.9123843 V 3.4739062 l 2.43089,0.055689 c 2.40328,0.055056 2.43886,0.061293 3.13257,0.5491422 0.86167,0.6059665 1.55562,1.5860508 1.69877,2.3992185 l 0.10758,0.6111279 -2.34043,-0.00371 c -1.86154,-0.00295 -2.45471,-0.060002 -2.899,-0.2788213 z"
       id="path7"
       transform="scale(0.26458333)" /><path
       style="font-variation-settings:'wght' 500;fill:#42a104;fill-opacity:1;stroke-width:4.44893"
       d="m 166.08747,5.9240552 c -0.16636,-0.5722489 -0.50559,-1.1774588 -0.93066,-1.6603657 l -0.66888,-0.7598896 h 1.15462 1.15462 v 1.3540753 c 0,0.8913488 -0.0765,1.4587434 -0.22396,1.6603656 -0.20539,0.2808868 -0.24568,0.2316049 -0.48574,-0.5941856 z"
       id="path8"
       transform="scale(0.26458333)" /><path
       style="font-variation-settings:'wght' 500;fill:#e65d00;fill-opacity:1;stroke-width:4.44893"
       d="m 162.72299,20.93692 c -3.05577,-0.424886 -5.34182,-2.443911 -6.25608,-5.525334 -0.72706,-2.450501 0.1773,-5.5587299 2.13899,-7.3516105 l 0.88036,-0.8045955 0.51833,0.2835285 c 0.43863,0.2399296 0.97301,0.2835284 3.47517,0.2835284 3.28372,0 3.43104,-0.044083 3.90733,-1.1691948 0.21245,-0.5018687 0.23735,-0.5123512 0.83309,-0.3508455 1.89773,0.5144773 3.91202,2.2434583 4.78365,4.1060924 1.68721,3.605493 0.10141,8.038146 -3.50782,9.805113 -1.6677,0.816453 -4.17638,1.084364 -6.77302,0.723318 z m 1.59766,-2.60924 c 0.2961,-0.539052 0.61056,-0.935475 0.6988,-0.880941 0.0882,0.05453 0.38466,0.496448 0.6587,0.982028 0.27405,0.485581 0.53029,0.882874 0.56943,0.882874 0.0391,0 0.33816,-0.111559 0.66449,-0.247908 1.52182,-0.635861 2.89498,-2.477365 3.09281,-4.147681 l 0.097,-0.819369 h -0.72103 c -0.70666,0 -0.73065,0.01784 -1.20421,0.895751 -0.26575,0.492663 -0.56948,0.896008 -0.67494,0.896321 -0.10546,3.14e-4 -0.42252,-0.402774 -0.70457,-0.895751 l -0.51282,-0.896321 h -1.33824 -1.33824 l -0.48318,0.895751 c -0.26575,0.492663 -0.56948,0.896008 -0.67494,0.896321 -0.10546,3.14e-4 -0.42252,-0.402774 -0.70457,-0.895751 -0.50255,-0.878358 -0.52757,-0.896321 -1.24854,-0.896321 h -0.73572 l 0.11145,0.692612 c 0.1779,1.105498 0.86459,2.469953 1.60018,3.179545 0.63531,0.612861 1.77629,1.321687 2.14676,1.333665 0.0896,0.0029 0.40523,-0.435774 0.70134,-0.974825 z m 1.9184,-4.902712 c 0.18431,-0.298214 -0.92393,-2.424666 -1.26366,-2.424666 -0.32195,0 -1.2746,1.701771 -1.2746,2.276897 0,0.302513 0.10296,0.330582 1.21264,0.330582 0.72039,0 1.2585,-0.07421 1.32562,-0.182813 z m -3.13103,-2.01767 c 0.0517,-0.134681 -0.21548,-0.849701 -0.5937,-1.5889329 -0.92055,-1.7992534 -1.11319,-1.7929622 -2.05098,0.066982 -0.3913,0.7760729 -0.66198,1.4910929 -0.60151,1.5889329 0.0667,0.107986 0.7077,0.177892 1.63108,0.177892 1.20295,0 1.54079,-0.05122 1.61511,-0.244874 z m 6.9485,-0.08468 c 0,-0.181253 -0.29416,-0.914607 -0.65369,-1.6296739 -0.88368,-1.7575582 -1.10177,-1.7485525 -1.98002,0.081765 -0.36469,0.7600379 -0.62028,1.4933909 -0.56799,1.6296739 0.0759,0.197757 0.40872,0.247788 1.64839,0.247788 1.45035,0 1.55331,-0.02185 1.55331,-0.329553 z"
       id="path9"
       transform="scale(0.26458333)" /></g></svg>
